<?xml version="1.0" encoding="UTF-8"?><svg id="Layer_1" xmlns="http://www.w3.org/2000/svg" viewBox="0 0 255.12 255.12"><defs><style>.cls-1{fill:#231f20;}.cls-2{fill:#fff;}.cls-3{fill:none;stroke:#231f20;stroke-miterlimit:10;stroke-width:.59px;}</style></defs><rect class="cls-1" x=".15" y="0" width="255.12" height="255.12" rx="127.56" ry="127.56"/><circle class="cls-2" cx="127.56" cy="71.06" r="48.51"/><path class="cls-1" d="M101.01,69.6h21.12c1.07,0,1.95-.99,1.96-2.23l.08-6.43-.29.58c-.11,2.41-.74,4.74-1.27,5.44-1.11,1.45-21.84,2.24-21.84,2.24l.25.39Z"/><path class="cls-1" d="M100.76,69.6s-.23-.49-.37-.51c-1.61-.24-1.46-2.48-.58-3.82l20.2-33.21-24.83,35.57c-.55.79-.06,1.97.82,1.97h4.76"/><path class="cls-1" d="M109.55,66.33s-.23-.49-.37-.51c-1.61-.24-1.46-2.48-.58-3.82l12.53-23.86-.15-.07-17.09,26.27c-.53.82-.03,2,.86,2h4.8"/><path class="cls-1" d="M127.71,48.48l-3.51-11.19c-.14-.49-1.04-1.44-1.74-1.35l-3.23.07s2.43.66,3.11,1.29c2.6,2.4,5.37,11.97,5.37,11.97v-.79Z"/><path class="cls-1" d="M119.36,31l-10.31-.02c-.45-.02-1.53.63-1.69,1.43l-1.05,3.52s1.37-2.41,2.11-2.93c2.84-2,11.58-1.73,11.58-1.73l-.65-.27Z"/><path class="cls-1" d="M127.49,34.73c.92,0,2.09-.41,1.66-2.61-.51-2.6-1.66-4.04-1.66-4.04,0,0-1.13,1.51-1.66,4.04-.43,2.02.75,2.61,1.66,2.61Z"/><path class="cls-1" d="M154.11,69.6h-21.12c-1.07,0-1.95-.99-1.96-2.23l-.08-6.43.29.58c.11,2.41.74,4.74,1.27,5.44,1.11,1.45,21.84,2.24,21.84,2.24l-.25.39Z"/><path class="cls-1" d="M154.36,69.6s.23-.49.37-.51c1.61-.24,1.46-2.48.58-3.82l-20.2-33.21,24.83,35.57c.55.79.06,1.97-.82,1.97h-4.76"/><path class="cls-1" d="M145.57,66.33s.23-.49.37-.51c1.61-.24,1.46-2.48.58-3.82l-12.53-23.86.15-.07,17.09,26.27c.53.82.03,2-.86,2h-4.8"/><path class="cls-1" d="M127.41,48.48l3.51-11.19c.14-.49,1.04-1.44,1.74-1.35l3.23.07s-2.43.66-3.11,1.29c-2.6,2.4-5.37,11.97-5.37,11.97v-.79Z"/><path class="cls-1" d="M135.76,31l10.31-.02c.45-.02,1.53.63,1.69,1.43l1.05,3.52s-1.37-2.41-2.11-2.93c-2.84-2-11.58-1.73-11.58-1.73l.65-.27Z"/><circle class="cls-1" cx="127.71" cy="65.27" r="2.25"/><path class="cls-1" d="M122.13,73.11c.74,0,1.36.74,1.37,1.65v.85c-.13-.34-.27-.61-.42-.81-.56-.74-4.38-1.29-8.88-1.69h7.93M122.13,72.52h-21.12l-.25.39s20.73.79,21.84,2.24c.54.7,1.16,3.03,1.27,5.44l.29.58-.08-6.43c-.02-1.24-.89-2.23-1.96-2.23h0Z"/><path class="cls-3" d="M100.76,72.52s-.23.49-.37.51c-1.61.24-1.46,2.48-.58,3.82l20.2,33.21-24.83-35.57c-.55-.79-.06-1.97.82-1.97h4.76"/><path class="cls-3" d="M109.55,75.79s-.23.49-.37.51c-1.61.24-1.46,2.48-.58,3.82l12.53,23.86-.15.07-17.09-26.27c-.53-.82-.03-2,.86-2h4.8"/><path class="cls-1" d="M123.9,103.78l-.28.89c-.07.26-.7.92-1.1.92h-.03s-.03,0-.03,0h-.19c.18-.11.34-.22.46-.33.39-.36.78-.87,1.17-1.47M127.71,92.84s-2.78,9.58-5.37,11.97c-.68.63-3.11,1.29-3.11,1.29l3.23.07s.06,0,.1,0c.69,0,1.51-.88,1.64-1.35l3.51-11.19v-.79h0Z"/><path class="cls-1" d="M107.9,109.45c.06.06.13.11.19.15.55.39,1.3.7,2.15.94h-1.2c-.25-.01-1-.49-1.11-1l-.03-.09M106.31,106.18l1.05,3.52c.17.78,1.21,1.43,1.67,1.43,0,0,.01,0,.02,0l10.31-.02.65-.27s-.39.01-1.03.01c-2.4,0-8.31-.17-10.55-1.74-.75-.53-2.11-2.93-2.11-2.93h0Z"/><path class="cls-1" d="M127.49,107.98c.3,0,.71.06.94.33.24.29.29.84.15,1.58-.27,1.37-.73,2.4-1.07,3.04-.35-.65-.81-1.69-1.1-3.05-.14-.68-.09-1.21.17-1.52.28-.34.74-.38.92-.38M127.49,107.39c-.92,0-2.09.59-1.66,2.61.54,2.53,1.66,4.04,1.66,4.04,0,0,1.16-1.45,1.66-4.04.43-2.2-.75-2.61-1.66-2.61h0Z"/><path class="cls-1" d="M140.91,73.11c-4.49.4-8.31.95-8.88,1.69-.15.19-.3.47-.43.81v-.84c.02-.91.64-1.65,1.38-1.65h7.93M154.11,72.52h-21.12c-1.07,0-1.95.99-1.96,2.23l-.08,6.43.29-.58c.11-2.41.74-4.74,1.27-5.44,1.11-1.45,21.84-2.24,21.84-2.24l-.25-.39h0Z"/><path class="cls-3" d="M154.36,72.52s.23.49.37.51c1.61.24,1.46,2.48.58,3.82l-20.2,33.21,24.83-35.57c.55-.79.06-1.97-.82-1.97h-4.76"/><path class="cls-3" d="M145.57,75.79s.23.49.37.51c1.61.24,1.46,2.48.58,3.82l-12.53,23.86.15.07,17.09-26.27c.53-.82.03-2-.86-2h-4.8"/><path class="cls-1" d="M131.22,103.78c.38.6.78,1.11,1.17,1.47.12.11.28.22.46.33h-.19s-.05,0-.05,0h-.03c-.37,0-1-.66-1.08-.94l-.27-.87M127.41,92.84v.79l3.51,11.19c.13.47.96,1.35,1.64,1.35.03,0,.06,0,.1,0l3.23-.07s-2.43-.66-3.11-1.29c-2.6-2.4-5.37-11.97-5.37-11.97h0Z"/><path class="cls-1" d="M147.22,109.44l-.04.14c-.1.47-.85.94-1.11.96h-1.18c.85-.25,1.59-.56,2.15-.95.06-.04.12-.09.19-.15M148.81,106.18s-1.37,2.41-2.11,2.93c-2.24,1.57-8.15,1.74-10.55,1.74-.64,0-1.03-.01-1.03-.01l.65.27,10.31.02s.01,0,.02,0c.46,0,1.51-.64,1.67-1.43l1.05-3.52h0Z"/><path class="cls-1" d="M127.71,75.19c.92,0,1.66.75,1.66,1.66s-.75,1.66-1.66,1.66-1.66-.75-1.66-1.66.75-1.66,1.66-1.66M127.71,74.59c-1.25,0-2.25,1.01-2.25,2.25s1.01,2.25,2.25,2.25,2.25-1.01,2.25-2.25-1.01-2.25-2.25-2.25h0Z"/><path class="cls-2" d="M79.53,139.89l-33.67,48.06c-1.6,2.27-2.48,3.66-2.64,4.16-.16.51-.07.93.27,1.26.34.33,1.24.5,2.71.5l-.39.56h-11.58s3.01-3.91,4.77-6.4l29.25-41.44c1.83-2.59,2.76-4.29,2.79-5.09.03-.8-.92-1.15-2.86-1.05l.39-.56h10.95Z"/><path class="cls-2" d="M78.61,188.37c0,.14,0,.28,0,.41-.02,1.11-.3,3.37-3.31,3.37,0,0-20.35,1.65-20.35,1.65l-.23.63h28.61s.05-2.94.05-4.53v-22.86h-4.76v21.34Z"/><path class="cls-2" d="M66.38,139.89h-23.5l-.27,6.63h.51c.32-2.11.99-3.3,1.68-3.98,1.77-1.72,21.26-2.16,21.26-2.16l.32-.49Z"/><path class="cls-2" d="M209.76,194.39s0,.02.08-.4c-4.72-.16-6.2-1.16-7.69-1.93-1.49-.77-3.61-2.9-6.35-6.41s-4.42-5.77-5.06-6.81l-2.91-4.14c2.3-1.21,4.08-2.69,5.34-4.45,1.26-1.76,1.89-3.6,1.89-5.54,0-1.69-.35-3.13-1.06-4.29-.71-1.17-1.76-2.09-3.15-2.78s-2.75-1.09-4.08-1.21c-1.33-.12-3.47-.18-6.44-.18h-15.98s2.02.68,2.39,1.17c1.5-.02,5.34-.16,5.34-.16h7.66c4.08,0,6.93,1.05,8.55,3.15,1.62,2.1,2.43,4.32,2.43,6.67s-.82,4.37-2.47,5.86c-1.65,1.49-4.17,2.44-7.58,2.44l-5.26.05,3.18.72h1.1l3.68-.1,4.15,5.9s.02.07.06.1c4.26,5.87,7.25,9.46,8.97,10.77,1.72,1.31,3.75,1.56,6.14,1.56h7.09Z"/><path class="cls-2" d="M218.02,167.03h-4.76v22.91c0,.97-.05,1.74-.16,2.32-.07.42-.18.74-.3.96-.58.3-1.19.56-1.84.77-.24.02-.49.04-.77.04v.39h11.01v-.39c-1.03,0-1.74-.12-2.14-.35-.4-.23-.67-.53-.81-.88s-.21-1.33-.21-2.91v-22.86Z"/><path class="cls-2" d="M181.34,194.04c-.11.01-.26,0-.39,0-.44,0-.95-.06-1.58-.22-.81-.21-1.41-.51-1.81-.9-.4-.4-1.13-1.34-2.17-2.82l-20.64-29.24c-1.12-1.59-1.73-2.55-1.84-2.91-.06-.18-.07-.35-.03-.5.03-.14.11-.27.22-.38.24-.23.87-.35,1.89-.35l-.27-.39h-7.96l13.62,19.24h-13.44l2.99.54,11.2.53,8.45,11.98.81,1.15c.12.17.22.32.33.47,0,.01.01.02.02.03.1.15.2.29.29.43.83,1.26,1.27,2.12,1.3,2.59,0,0,0,.02,0,.03.02.4-.33.64-1.04.72-.27.03-.59.04-.96.02l.27.39h10.99l-.27-.39Z"/><path class="cls-2" d="M115.69,165.59l15.97-21.98.09,7.31v37.05c0,2.49-.24,4.09-.72,4.79-.48.7-1.71,1.05-3.68,1.05v.56h14.59v-.56c-1.47,0-2.49-.17-3.06-.5-.57-.33-.96-.75-1.16-1.26-.2-.51-.3-1.89-.3-4.16v-41.85c0-2.12.09-3.47.26-4.03.04-.12.1-.22.17-.33.79-.75,1.96-1.17,3.53-1.24v-.07c.19,0,.38,0,.57.02v-.56h-10.52l-15.73,24.73"/><path class="cls-2" d="M115.69,166.06l-13.73-19.69c-1.6-2.27-4.45-6.48-4.45-6.48h-11.33l.39.56c1.97,0,3.45.35,4.43,1.05.98.7,2.34,2.3,4.1,4.79l6.7,9.5,11.13,15.77,2.75-5.5Z"/><ellipse class="cls-2" cx="215.68" cy="158.61" rx="3.98" ry="3.6"/><ellipse class="cls-2" cx="80.71" cy="159.03" rx="3.98" ry="3.6"/></svg>