<?xml version="1.0" encoding="UTF-8"?><svg id="Layer_1" xmlns="http://www.w3.org/2000/svg" viewBox="0 0 226.77 226.77"><defs><style>.cls-1{fill:#6b5851;}.cls-2{fill:#bda283;}</style></defs><circle class="cls-1" cx="113.39" cy="113.39" r="99.21"/><g id="_Radial_Repeat_"><path class="cls-2" d="M197.51,118.16h-29.09c-1.48,0-2.68-1.37-2.7-3.07l-.11-8.86.39.81c.15,3.32,1.01,6.53,1.76,7.5,1.53,2,30.09,3.09,30.09,3.09l-.34.54Z"/><path class="cls-2" d="M197.86,118.16s.32-.68.51-.71c2.22-.33,2.01-3.42.8-5.26l-27.83-45.75,34.21,49c.76,1.09.09,2.72-1.13,2.72h-6.56"/><path class="cls-2" d="M185.75,113.65s.32-.68.51-.71c2.22-.33,2.01-3.42.8-5.26l-17.27-32.87.21-.09,23.55,36.18c.74,1.13.04,2.75-1.19,2.75h-6.61"/><polygon class="cls-2" points="152.56 63.81 152.07 64.52 152.49 63.81 152.56 63.81"/><path class="cls-2" d="M160.73,89.06l4.84-15.41c.19-.68,1.43-1.98,2.4-1.86l4.45.09s-3.34.91-4.28,1.78c-3.58,3.3-7.4,16.49-7.4,16.49v-1.09Z"/><path class="cls-2" d="M172.23,64.99l14.2-.03c.62-.03,2.1.87,2.33,1.97l1.45,4.85s-1.88-3.31-2.91-4.04c-3.91-2.75-15.96-2.38-15.96-2.38l.89-.37Z"/><path class="cls-2" d="M161.03,70.12c-1.27,0-2.88-.57-2.29-3.6.7-3.58,2.29-5.57,2.29-5.57,0,0,1.55,2.08,2.29,5.57.59,2.78-1.03,3.6-2.29,3.6Z"/><path class="cls-2" d="M124.37,118.16h29.09c1.48,0,2.68-1.37,2.7-3.07l.11-8.86-.39.81c-.15,3.32-1.01,6.53-1.76,7.5-1.53,2-30.09,3.09-30.09,3.09l.34.54Z"/><path class="cls-2" d="M124.02,118.16s-.32-.68-.51-.71c-2.22-.33-2.01-3.42-.8-5.26l27.83-45.75-34.21,49c-.76,1.09-.09,2.72,1.13,2.72h6.56"/><path class="cls-2" d="M136.12,113.65s-.32-.68-.51-.71c-2.22-.33-2.01-3.42-.8-5.26l17.27-32.87-.21-.09-23.55,36.18c-.74,1.13-.04,2.75,1.19,2.75h6.61"/><polygon class="cls-2" points="169.31 63.81 169.81 64.52 169.39 63.81 169.31 63.81"/><path class="cls-2" d="M161.14,89.06l-4.84-15.41c-.19-.68-1.43-1.98-2.4-1.86l-4.45.09s3.34.91,4.28,1.78c3.58,3.3,7.4,16.49,7.4,16.49v-1.09Z"/><path class="cls-2" d="M149.65,64.99l-14.2-.03c-.62-.03-2.1.87-2.33,1.97l-1.45,4.85s1.88-3.31,2.91-4.04c3.91-2.75,15.96-2.38,15.96-2.38l-.89-.37Z"/><circle class="cls-2" cx="160.73" cy="112.19" r="3.11"/></g><g id="_Radial_Repeat_-2"><path class="cls-2" d="M132.49,193.4l-8.99-27.67c-.46-1.41.47-2.97,2.09-3.52l8.39-2.84-.64.62c-3.11,1.17-5.89,2.98-6.59,3.99-1.43,2.08,6.36,29.57,6.36,29.57l-.62-.16Z"/><path class="cls-2" d="M132.6,193.74s.74.09.83.27c1,2,3.88.86,5.25-.87l34.92-40.61-36.03,47.68c-.8,1.06-2.56.92-2.93-.23l-2.03-6.24"/><path class="cls-2" d="M133.14,180.83s.74.09.83.27c1,2,3.88.86,5.25-.87l25.93-26.58.15.17-27.14,33.58c-.85,1.05-2.6.88-2.98-.28l-2.04-6.28"/><polygon class="cls-2" points="170.28 133.86 169.46 133.61 170.26 133.79 170.28 133.86"/><path class="cls-2" d="M148.79,149.44l16.16-.16c.71-.03,2.33.74,2.51,1.71l1.28,4.26s-1.9-2.9-3.01-3.52c-4.24-2.38-17.97-1.94-17.97-1.94l1.04-.34Z"/><path class="cls-2" d="M175.24,152.93l4.41,13.5c.22.58-.18,2.27-1.15,2.83l-4.17,2.87s2.57-2.82,2.94-4.02c1.41-4.57-2.67-15.91-2.67-15.91l.63.73Z"/><path class="cls-2" d="M166.9,143.87c-.39-1.2-.35-2.92,2.71-3.29,3.62-.44,6.01.46,6.01.46,0,0-1.5,2.12-4.59,3.9-2.46,1.42-3.74.14-4.13-1.07Z"/><path class="cls-2" d="M109.89,123.84l8.99,27.67c.46,1.41,2.13,2.13,3.76,1.62l8.46-2.64-.89-.13c-3.21.88-6.52,1.05-7.67.65-2.38-.84-12.24-27.66-12.24-27.66l-.41.49Z"/><path class="cls-2" d="M109.78,123.51s.55-.51.52-.71c-.37-2.21,2.63-2.97,4.75-2.38l52.12,12.33-57.18-17.39c-1.27-.39-2.61.75-2.24,1.91l2.03,6.24"/><path class="cls-2" d="M117.8,133.63s.55-.51.52-.71c-.37-2.21,2.63-2.97,4.75-2.38l36.6,6.26.02-.22-41.69-11.21c-1.3-.35-2.63.81-2.25,1.98l2.04,6.28"/><polygon class="cls-2" points="175.46 149.8 174.94 150.49 175.48 149.87 175.46 149.8"/><path class="cls-2" d="M148.92,149.83l13.16-9.37c.59-.39,1.44-1.97,1.03-2.86l-1.46-4.2s.17,3.46-.37,4.62c-2.03,4.42-13.4,12.14-13.4,12.14l1.04-.34Z"/><path class="cls-2" d="M168.26,131.45l-4.36-13.52c-.16-.6-1.47-1.73-2.59-1.61l-5.06.13s3.73.77,4.74,1.52c3.82,2.87,7.2,14.44,7.2,14.44l.08-.96Z"/><circle class="cls-2" cx="126.8" cy="156.58" r="3.11"/></g><g id="_Radial_Repeat_-3"><path class="cls-2" d="M40.83,154.82l23.53-17.1c1.2-.87,2.97-.47,4,.9l5.29,7.1-.79-.42c-2.08-2.6-4.66-4.68-5.83-5.03-2.42-.72-26.16,15.19-26.16,15.19l-.04-.64Z"/><path class="cls-2" d="M40.55,155.03s.14.73,0,.87c-1.6,1.57.38,3.95,2.45,4.72l49.41,20.66-56.48-19.54c-1.26-.44-1.67-2.15-.69-2.86l5.31-3.86"/><path class="cls-2" d="M52.99,151.55s.14.73,0,.87c-1.6,1.57.38,3.95,2.45,4.72l33.29,16.45-.11.2-40.32-15.43c-1.26-.48-1.65-2.2-.65-2.92l5.35-3.88"/><polygon class="cls-2" points="109.13 172.37 109.12 171.5 109.19 172.32 109.13 172.37"/><path class="cls-2" d="M87.68,156.74l5.14,15.32c.25.66.01,2.44-.85,2.91l-3.65,2.54s2.17-2.7,2.42-3.96c.95-4.77-3.71-17.69-3.71-17.69l.64.88Z"/><path class="cls-2" d="M92.53,182.98l-11.48,8.37c-.48.39-2.21.53-3.04-.22l-4.02-3.08s3.47,1.57,4.73,1.55c4.78-.07,14.31-7.45,14.31-7.45l-.5.83Z"/><path class="cls-2" d="M98.57,172.24c1.02-.74,2.67-1.24,3.97,1.56,1.54,3.31,1.42,5.86,1.42,5.86,0,0-2.48-.77-5.13-3.16-2.11-1.9-1.28-3.51-.26-4.26Z"/><path class="cls-2" d="M100,111.83l-23.53,17.1c-1.2.87-1.36,2.68-.38,4.08l5.12,7.23-.15-.88c-1.83-2.78-3.02-5.88-2.99-7.1.06-2.52,22.53-20.19,22.53-20.19l-.59-.24Z"/><path class="cls-2" d="M100.29,111.62s.65.36.83.27c1.99-1.03,3.64,1.58,3.73,3.78l4.38,53.37-1.13-59.75c-.03-1.33-1.52-2.25-2.51-1.54l-5.31,3.86"/><path class="cls-2" d="M93.14,122.38s.65.36.83.27c1.99-1.03,3.64,1.58,3.73,3.78l5.35,36.75.22-.05-2.22-43.11c-.07-1.35-1.59-2.25-2.58-1.53l-5.35,3.88"/><polygon class="cls-2" points="95.58 182.21 94.77 181.93 95.52 182.26 95.58 182.21"/><path class="cls-2" d="M87.35,156.98l12.98,9.62c.55.44,2.32.77,3.03.09l3.54-2.69s-3.24,1.23-4.51,1.08c-4.83-.57-15.68-8.99-15.68-8.99l.64.88Z"/><path class="cls-2" d="M110.8,169.7l11.51-8.33c.52-.34,1.19-1.94.73-2.96l-1.68-4.78s.42,3.79.02,4.98c-1.55,4.52-11.51,11.31-11.51,11.31l.94-.22Z"/><circle class="cls-2" cx="74.09" cy="138.03" r="3.11"/></g><g id="_Radial_Repeat_-4"><path class="cls-2" d="M49.2,55.73l23.53,17.1c1.2.87,1.36,2.68.38,4.08l-5.12,7.23.15-.88c1.83-2.78,3.02-5.88,2.99-7.1-.06-2.52-22.53-20.19-22.53-20.19l.59-.24Z"/><path class="cls-2" d="M48.92,55.52s-.65.36-.83.27c-1.99-1.03-3.64,1.58-3.73,3.78l-4.38,53.37,1.13-59.75c.03-1.33,1.52-2.25,2.51-1.54l5.31,3.86"/><path class="cls-2" d="M56.07,66.28s-.65.36-.83.27c-1.99-1.03-3.64,1.58-3.73,3.78l-5.35,36.75-.22-.05,2.22-43.11c.07-1.35,1.59-2.25,2.58-1.53l5.35,3.88"/><polygon class="cls-2" points="53.62 126.11 54.44 125.83 53.68 126.15 53.62 126.11"/><path class="cls-2" d="M61.85,100.88l-12.98,9.62c-.55.44-2.32.77-3.03.09l-3.54-2.69s3.24,1.23,4.51,1.08c4.83-.57,15.68-8.99,15.68-8.99l-.64.88Z"/><path class="cls-2" d="M38.4,113.6l-11.51-8.33c-.52-.34-1.19-1.94-.73-2.96l1.68-4.78s-.42,3.79-.02,4.98c1.55,4.52,11.51,11.31,11.51,11.31l-.94-.22Z"/><path class="cls-2" d="M50.48,116.02c1.02.74,2,2.16-.26,4.26-2.67,2.49-5.13,3.16-5.13,3.16,0,0-.03-2.59,1.42-5.86,1.16-2.6,2.95-2.31,3.97-1.56Z"/><path class="cls-2" d="M108.37,98.72l-23.53-17.1c-1.2-.87-2.97-.47-4,.9l-5.29,7.1.79-.42c2.08-2.6,4.66-4.68,5.83-5.03,2.42-.72,26.16,15.19,26.16,15.19l.04-.64Z"/><path class="cls-2" d="M108.66,98.92s-.14.73,0,.87c1.6,1.57-.38,3.95-2.45,4.72l-49.41,20.66,56.48-19.54c1.26-.44,1.67-2.15.69-2.86l-5.31-3.86"/><path class="cls-2" d="M96.22,95.45s-.14.73,0,.87c1.6,1.57-.38,3.95-2.45,4.72l-33.29,16.45.11.2,40.32-15.43c1.26-.48,1.65-2.2.65-2.92l-5.35-3.88"/><polygon class="cls-2" points="40.07 116.26 40.09 115.4 40.01 116.22 40.07 116.26"/><path class="cls-2" d="M61.52,100.64l-5.14,15.32c-.25.66-.01,2.44.85,2.91l3.65,2.54s-2.17-2.7-2.42-3.96c-.95-4.77,3.71-17.69,3.71-17.69l-.64.88Z"/><path class="cls-2" d="M56.67,126.87l11.48,8.37c.48.39,2.21.53,3.04-.22l4.02-3.08s-3.47,1.57-4.73,1.55c-4.78-.07-14.31-7.45-14.31-7.45l.5.83Z"/><circle class="cls-2" cx="75.45" cy="82.17" r="3.11"/></g><g id="_Radial_Repeat_-5"><path class="cls-2" d="M146.03,33.07l-8.99,27.67c-.46,1.41-2.13,2.13-3.76,1.62l-8.46-2.64.89-.13c3.21.88,6.52,1.05,7.67.65,2.38-.84,12.24-27.66,12.24-27.66l.41.49Z"/><path class="cls-2" d="M146.14,32.73s-.55-.51-.52-.71c.37-2.21-2.63-2.97-4.75-2.38l-52.12,12.33,57.18-17.39c1.27-.39,2.61.75,2.24,1.91l-2.03,6.24"/><path class="cls-2" d="M138.12,42.85s-.55-.51-.52-.71c.37-2.21-2.63-2.97-4.75-2.38l-36.6,6.26-.02-.22,41.69-11.21c1.3-.35,2.63.81,2.25,1.98l-2.04,6.28"/><polygon class="cls-2" points="80.46 59.02 80.98 59.71 80.44 59.09 80.46 59.02"/><path class="cls-2" d="M107,59.05l-13.16-9.37c-.59-.39-1.44-1.97-1.03-2.86l1.46-4.2s-.17,3.46.37,4.62c2.03,4.42,13.4,12.14,13.4,12.14l-1.04-.34Z"/><path class="cls-2" d="M87.66,40.68l4.36-13.52c.16-.6,1.47-1.73,2.59-1.61l5.06.13s-3.73.77-4.74,1.52c-3.82,2.87-7.2,14.44-7.2,14.44l-.08-.96Z"/><path class="cls-2" d="M89.08,52.91c-.39,1.2-1.43,2.57-4.13,1.07-3.19-1.77-4.59-3.9-4.59-3.9,0,0,2.46-.83,6.01-.46,2.83.3,3.1,2.09,2.71,3.29Z"/><path class="cls-2" d="M123.43,102.63l8.99-27.67c.46-1.41-.47-2.97-2.09-3.52l-8.39-2.84.64.62c3.11,1.17,5.89,2.98,6.59,3.99,1.43,2.08-6.36,29.57-6.36,29.57l.62-.16Z"/><path class="cls-2" d="M123.32,102.96s-.74.09-.83.27c-1,2-3.88.86-5.25-.87l-34.92-40.61,36.03,47.68c.8,1.06,2.56.92,2.93-.23l2.03-6.24"/><path class="cls-2" d="M122.78,90.06s-.74.09-.83.27c-1,2-3.88.86-5.25-.87l-25.93-26.58-.15.17,27.14,33.58c.85,1.05,2.6.88,2.98-.28l2.04-6.28"/><polygon class="cls-2" points="85.64 43.09 86.46 42.84 85.66 43.02 85.64 43.09"/><path class="cls-2" d="M107.13,58.66l-16.16-.16c-.71-.03-2.33.74-2.51,1.71l-1.28,4.26s1.9-2.9,3.01-3.52c4.24-2.38,17.97-1.94,17.97-1.94l-1.04-.34Z"/><path class="cls-2" d="M80.68,62.15l-4.41,13.5c-.22.58.18,2.27,1.15,2.83l4.17,2.87s-2.57-2.82-2.94-4.02c-1.41-4.57,2.67-15.91,2.67-15.91l-.63.73Z"/><circle class="cls-2" cx="128.99" cy="66.2" r="3.11"/></g></svg>