<?xml version="1.0" encoding="UTF-8"?><svg id="Layer_1" xmlns="http://www.w3.org/2000/svg" viewBox="0 0 311.81 113.39"><defs><style>.cls-1{fill:#a47865;}.cls-2{fill:#6b5851;}.cls-3{fill:#f0e8de;}</style></defs><path class="cls-2" d="M154.47,33.01l-30.66,43.77c-1.46,2.07-2.26,3.33-2.4,3.79-.14.46-.06.84.25,1.15.31.3,1.13.45,2.47.45l-.36.51h-10.54s2.74-3.56,4.34-5.83l26.64-37.73c1.66-2.36,2.51-3.9,2.54-4.63.03-.73-.84-1.05-2.6-.96l.36-.51h9.97Z"/><path class="cls-2" d="M153.63,77.15c0,.13,0,.25,0,.37-.02,1.01-.28,3.06-3.02,3.06,0,0-18.53,1.5-18.53,1.5l-.21.58h26.05s.05-2.68.05-4.13v-20.82h-4.34v19.43Z"/><path class="cls-2" d="M142.49,33.01h-21.4l-.25,6.04h.46c.29-1.92.9-3.01,1.53-3.62,1.61-1.56,19.36-1.97,19.36-1.97l.29-.45Z"/><path class="cls-2" d="M273.07,82.64s0,.01.07-.37c-4.29-.15-5.64-1.06-7-1.76-1.36-.7-3.29-2.65-5.78-5.84s-4.03-5.26-4.61-6.2l-2.65-3.77c2.09-1.1,3.71-2.45,4.86-4.05,1.15-1.6,1.72-3.28,1.72-5.04,0-1.54-.32-2.85-.97-3.91-.65-1.06-1.6-1.91-2.87-2.53s-2.5-.99-3.71-1.1c-1.21-.11-3.16-.17-5.87-.17h-14.55s1.84.62,2.18,1.07c1.37-.02,4.86-.15,4.86-.15h6.98c3.72,0,6.31.96,7.78,2.87,1.47,1.91,2.21,3.94,2.21,6.08s-.75,3.98-2.25,5.33c-1.5,1.35-3.8,2.22-6.9,2.22l-4.79.05,2.89.66h1l3.35-.09,3.78,5.38s.02.06.05.09c3.88,5.35,6.6,8.61,8.16,9.81,1.56,1.19,3.42,1.42,5.59,1.42h6.46Z"/><path class="cls-2" d="M280.58,57.72h-4.34v20.87c0,.88-.05,1.58-.14,2.12-.07.38-.16.67-.28.87-.53.28-1.09.51-1.68.71-.22.02-.45.03-.71.03v.35h10.03v-.35c-.94,0-1.59-.11-1.95-.32-.37-.21-.61-.48-.74-.8s-.19-1.21-.19-2.65v-20.82Z"/><path class="cls-2" d="M247.18,82.32c-.1.01-.24,0-.35,0-.4,0-.87-.06-1.44-.2-.74-.19-1.29-.46-1.65-.82-.37-.36-1.02-1.22-1.98-2.57l-18.79-26.62c-1.02-1.44-1.58-2.33-1.68-2.65-.05-.16-.06-.31-.03-.45.03-.13.1-.25.2-.35.22-.21.79-.32,1.72-.32l-.25-.35h-7.25l12.41,17.52h-12.24l2.73.49,10.2.48,7.7,10.91.74,1.04c.11.15.2.29.3.43,0,.01.01.01.02.03.09.14.18.27.27.4.76,1.15,1.16,1.93,1.19,2.35,0,0,0,.02,0,.02.01.37-.3.59-.94.65-.25.03-.53.03-.88.02l.25.35h10.01l-.25-.35Z"/><path class="cls-2" d="M187.4,56.41l14.55-20.02.08,6.66v33.74c0,2.27-.22,3.72-.66,4.36-.44.64-1.56.96-3.35.96v.51h13.29v-.51c-1.34,0-2.27-.15-2.79-.45-.52-.3-.87-.69-1.06-1.15-.18-.46-.27-1.72-.27-3.79v-38.11c0-1.93.08-3.16.24-3.67.03-.11.09-.2.15-.3.72-.69,1.79-1.07,3.22-1.13v-.07c.18,0,.35,0,.51.02v-.51h-9.58l-14.33,22.52"/><path class="cls-2" d="M187.4,56.84l-12.51-17.93c-1.46-2.07-4.06-5.9-4.06-5.9h-10.31l.36.51c1.8,0,3.14.32,4.03.96.89.64,2.13,2.09,3.74,4.36l6.11,8.65,10.14,14.36,2.51-5.01Z"/><ellipse class="cls-2" cx="278.45" cy="50.06" rx="3.62" ry="3.28"/><ellipse class="cls-2" cx="155.54" cy="50.44" rx="3.62" ry="3.28"/><circle class="cls-1" cx="68.03" cy="57.91" r="39.68"/><path class="cls-3" d="M46.31,56.71h17.27c.88,0,1.59-.81,1.61-1.83l.06-5.26-.23.48c-.09,1.97-.6,3.88-1.04,4.45-.91,1.19-17.87,1.84-17.87,1.84l.2.32Z"/><path class="cls-3" d="M46.11,56.71s-.19-.4-.3-.42c-1.32-.2-1.2-2.03-.47-3.12l16.53-27.17-20.31,29.1c-.45.65-.05,1.61.67,1.61h3.9"/><path class="cls-3" d="M53.29,54.04s-.19-.4-.3-.42c-1.32-.2-1.2-2.03-.47-3.12l10.25-19.52-.12-.05-13.98,21.49c-.44.67-.02,1.63.71,1.63h3.92"/><path class="cls-3" d="M68.15,39.44l-2.88-9.15c-.11-.4-.85-1.18-1.42-1.1l-2.64.06s1.98.54,2.54,1.06c2.12,1.96,4.4,9.79,4.4,9.79v-.65Z"/><path class="cls-3" d="M61.33,25.14l-8.43-.02c-.37-.02-1.25.52-1.39,1.17l-.86,2.88s1.12-1.97,1.73-2.4c2.32-1.63,9.48-1.41,9.48-1.41l-.53-.22Z"/><path class="cls-3" d="M67.97,28.19c.75,0,1.71-.34,1.36-2.14-.42-2.13-1.36-3.31-1.36-3.31,0,0-.92,1.24-1.36,3.31-.35,1.65.61,2.14,1.36,2.14Z"/><path class="cls-3" d="M89.75,56.71h-17.27c-.88,0-1.59-.81-1.61-1.83l-.06-5.26.23.48c.09,1.97.6,3.88,1.04,4.45.91,1.19,17.87,1.84,17.87,1.84l-.2.32Z"/><path class="cls-3" d="M89.95,56.71s.19-.4.3-.42c1.32-.2,1.2-2.03.47-3.12l-16.53-27.17,20.31,29.1c.45.65.05,1.61-.67,1.61h-3.9"/><path class="cls-3" d="M82.77,54.04s.19-.4.3-.42c1.32-.2,1.2-2.03.47-3.12l-10.25-19.52.12-.05,13.98,21.49c.44.67.02,1.63-.71,1.63h-3.92"/><path class="cls-3" d="M67.91,39.44l2.88-9.15c.11-.4.85-1.18,1.42-1.1l2.64.06s-1.98.54-2.54,1.06c-2.12,1.96-4.4,9.79-4.4,9.79v-.65Z"/><path class="cls-3" d="M74.74,25.14l8.43-.02c.37-.02,1.25.52,1.39,1.17l.86,2.88s-1.12-1.97-1.73-2.4c-2.32-1.63-9.48-1.41-9.48-1.41l.53-.22Z"/><circle class="cls-3" cx="68.15" cy="53.17" r="1.84"/><path class="cls-2" d="M46.31,59.1h17.27c.88,0,1.59.81,1.61,1.83l.06,5.26-.23-.48c-.09-1.97-.6-3.88-1.04-4.45-.91-1.19-17.87-1.84-17.87-1.84l.2-.32Z"/><path class="cls-2" d="M46.11,59.1s-.19.4-.3.42c-1.32.2-1.2,2.03-.47,3.12l16.53,27.17-20.31-29.1c-.45-.65-.05-1.61.67-1.61h3.9"/><path class="cls-2" d="M53.29,61.77s-.19.4-.3.42c-1.32.2-1.2,2.03-.47,3.12l10.25,19.52-.12.05-13.98-21.49c-.44-.67-.02-1.63.71-1.63h3.92"/><path class="cls-2" d="M68.15,76.38l-2.88,9.15c-.11.4-.85,1.18-1.42,1.1l-2.64-.06s1.98-.54,2.54-1.06c2.12-1.96,4.4-9.79,4.4-9.79v.65Z"/><path class="cls-2" d="M61.33,90.67l-8.43.02c-.37.02-1.25-.52-1.39-1.17l-.86-2.88s1.12,1.97,1.73,2.4c2.32,1.63,9.48,1.41,9.48,1.41l-.53.22Z"/><path class="cls-2" d="M67.97,87.62c.75,0,1.71.34,1.36,2.14-.42,2.13-1.36,3.31-1.36,3.31,0,0-.92-1.24-1.36-3.31-.35-1.65.61-2.14,1.36-2.14Z"/><path class="cls-2" d="M89.75,59.1h-17.27c-.88,0-1.59.81-1.61,1.83l-.06,5.26.23-.48c.09-1.97.6-3.88,1.04-4.45.91-1.19,17.87-1.84,17.87-1.84l-.2-.32Z"/><path class="cls-2" d="M89.95,59.1s.19.4.3.42c1.32.2,1.2,2.03.47,3.12l-16.53,27.17,20.31-29.1c.45-.65.05-1.61-.67-1.61h-3.9"/><path class="cls-2" d="M82.77,61.77s.19.4.3.42c1.32.2,1.2,2.03.47,3.12l-10.25,19.52.12.05,13.98-21.49c.44-.67.02-1.63-.71-1.63h-3.92"/><path class="cls-2" d="M67.91,76.38l2.88,9.15c.11.4.85,1.18,1.42,1.1l2.64-.06s-1.98-.54-2.54-1.06c-2.12-1.96-4.4-9.79-4.4-9.79v.65Z"/><path class="cls-2" d="M74.74,90.67l8.43.02c.37.02,1.25-.52,1.39-1.17l.86-2.88s-1.12,1.97-1.73,2.4c-2.32,1.63-9.48,1.41-9.48,1.41l.53.22Z"/><circle class="cls-2" cx="68.15" cy="62.64" r="1.84"/></svg>