<?xml version="1.0" encoding="UTF-8"?><svg id="Layer_1" xmlns="http://www.w3.org/2000/svg" viewBox="0 0 311.81 113.39"><defs><style>.cls-1{fill:#6b5851;}.cls-2{fill:#bda283;}</style></defs><path class="cls-1" d="M147.54,30.46l-32.31,46.12c-1.54,2.18-2.38,3.51-2.53,3.99-.15.49-.06.89.26,1.21.32.32,1.19.48,2.6.48l-.38.53h-11.11s2.89-3.75,4.57-6.14l28.07-39.76c1.75-2.49,2.65-4.11,2.68-4.88.03-.77-.88-1.11-2.74-1.01l.38-.53h10.51Z"/><path class="cls-1" d="M146.66,76.98c0,.14,0,.27,0,.39-.02,1.06-.29,3.23-3.18,3.23,0,0-19.53,1.58-19.53,1.58l-.22.61h27.45s.05-2.82.05-4.35v-21.94h-4.57v20.47Z"/><path class="cls-1" d="M134.92,30.46h-22.55l-.26,6.37h.49c.3-2.03.95-3.17,1.61-3.82,1.69-1.65,20.4-2.08,20.4-2.08l.3-.47Z"/><path class="cls-1" d="M272.51,82.75s0,.01.07-.39c-4.53-.15-5.95-1.12-7.38-1.85-1.43-.74-3.46-2.79-6.09-6.15s-4.24-5.54-4.85-6.54l-2.8-3.98c2.21-1.16,3.91-2.58,5.12-4.27,1.21-1.68,1.82-3.46,1.82-5.31,0-1.63-.34-3-1.02-4.12-.68-1.12-1.69-2.01-3.02-2.66s-2.64-1.04-3.91-1.16c-1.27-.12-3.33-.17-6.18-.17h-15.33s1.94.65,2.3,1.13c1.44-.02,5.12-.16,5.12-.16h7.35c3.91,0,6.65,1.01,8.2,3.02,1.55,2.01,2.33,4.15,2.33,6.4s-.79,4.19-2.37,5.62c-1.58,1.43-4,2.34-7.27,2.34l-5.05.05,3.05.69h1.06l3.53-.1,3.98,5.67s.02.07.05.1c4.09,5.63,6.96,9.08,8.6,10.33,1.65,1.26,3.6,1.5,5.89,1.5h6.8Z"/><path class="cls-1" d="M280.43,56.5h-4.57v21.99c0,.93-.05,1.67-.15,2.23-.07.4-.17.71-.29.92-.56.29-1.15.54-1.77.74-.23.02-.47.04-.74.04v.37h10.57v-.37c-.99,0-1.67-.11-2.06-.34-.39-.22-.65-.5-.78-.84s-.2-1.27-.2-2.8v-21.94Z"/><path class="cls-1" d="M245.23,82.42c-.11.01-.25,0-.37,0-.43,0-.91-.06-1.52-.22-.78-.2-1.36-.49-1.74-.87-.39-.38-1.08-1.28-2.08-2.7l-19.8-28.05c-1.07-1.52-1.66-2.45-1.77-2.79-.05-.17-.06-.33-.03-.47.03-.14.1-.26.21-.37.23-.22.83-.33,1.82-.33l-.26-.37h-7.64l13.07,18.46h-12.89l2.87.51,10.74.5,8.11,11.49.78,1.1c.11.16.21.31.32.46,0,.01.01.02.02.03.1.14.19.28.28.42.8,1.21,1.22,2.04,1.25,2.48,0,0,0,.02,0,.03.02.39-.32.62-.99.69-.26.03-.56.04-.92.02l.26.37h10.55l-.26-.37Z"/><path class="cls-1" d="M182.24,55.12l15.33-21.09.08,7.02v35.55c0,2.39-.23,3.92-.69,4.6-.46.67-1.64,1.01-3.53,1.01v.53h14v-.53c-1.41,0-2.39-.16-2.94-.48-.55-.32-.92-.72-1.11-1.21-.19-.48-.29-1.82-.29-3.99v-40.15c0-2.03.08-3.32.25-3.87.03-.11.09-.21.16-.32.75-.72,1.88-1.12,3.39-1.19v-.07c.19,0,.37,0,.54.02v-.53h-10.09l-15.09,23.72"/><path class="cls-1" d="M182.24,55.57l-13.18-18.9c-1.54-2.18-4.27-6.21-4.27-6.21h-10.87l.38.53c1.89,0,3.31.34,4.25,1.01.94.67,2.25,2.21,3.94,4.6l6.43,9.11,10.68,15.13,2.64-5.28Z"/><ellipse class="cls-1" cx="278.18" cy="48.42" rx="3.82" ry="3.46"/><ellipse class="cls-1" cx="148.67" cy="48.82" rx="3.82" ry="3.46"/><path class="cls-1" d="M33.58,55.44h18.2c.92,0,1.68-.86,1.69-1.92l.07-5.54-.25.5c-.1,2.08-.64,4.08-1.1,4.69-.96,1.25-18.83,1.93-18.83,1.93l.21.34Z"/><path class="cls-1" d="M33.36,55.44s-.2-.42-.32-.44c-1.39-.21-1.26-2.14-.5-3.29l17.41-28.63-21.4,30.66c-.48.68-.06,1.7.7,1.7h4.11"/><path class="cls-1" d="M40.93,52.62s-.2-.42-.32-.44c-1.39-.21-1.26-2.14-.5-3.29l10.8-20.57-.13-.06-14.73,22.64c-.46.71-.02,1.72.74,1.72h4.13"/><path class="cls-1" d="M56.59,37.23l-3.03-9.64c-.12-.43-.89-1.24-1.5-1.16l-2.78.06s2.09.57,2.68,1.11c2.24,2.06,4.63,10.32,4.63,10.32v-.68Z"/><path class="cls-1" d="M49.4,22.17l-8.89-.02c-.39-.02-1.31.54-1.46,1.23l-.9,3.04s1.18-2.07,1.82-2.53c2.45-1.72,9.99-1.49,9.99-1.49l-.56-.23Z"/><path class="cls-1" d="M56.4,25.38c.79,0,1.8-.36,1.43-2.25-.44-2.24-1.43-3.49-1.43-3.49,0,0-.97,1.3-1.43,3.49-.37,1.74.64,2.25,1.43,2.25Z"/><path class="cls-1" d="M79.34,55.44h-18.2c-.92,0-1.68-.86-1.69-1.92l-.07-5.54.25.5c.1,2.08.64,4.08,1.1,4.69.96,1.25,18.83,1.93,18.83,1.93l-.21.34Z"/><path class="cls-1" d="M79.56,55.44s.2-.42.32-.44c1.39-.21,1.26-2.14.5-3.29l-17.41-28.63,21.4,30.66c.48.68.06,1.7-.7,1.7h-4.11"/><path class="cls-1" d="M71.99,52.62s.2-.42.32-.44c1.39-.21,1.26-2.14.5-3.29l-10.8-20.57.13-.06,14.73,22.64c.46.71.02,1.72-.74,1.72h-4.13"/><path class="cls-1" d="M56.33,37.23l3.03-9.64c.12-.43.89-1.24,1.5-1.16l2.78.06s-2.09.57-2.68,1.11c-2.24,2.06-4.63,10.32-4.63,10.32v-.68Z"/><path class="cls-1" d="M63.53,22.17l8.89-.02c.39-.02,1.31.54,1.46,1.23l.9,3.04s-1.18-2.07-1.82-2.53c-2.45-1.72-9.99-1.49-9.99-1.49l.56-.23Z"/><circle class="cls-1" cx="56.59" cy="51.7" r="1.94"/><path class="cls-2" d="M33.58,57.95h18.2c.92,0,1.68.86,1.69,1.92l.07,5.54-.25-.5c-.1-2.08-.64-4.08-1.1-4.69-.96-1.25-18.83-1.93-18.83-1.93l.21-.34Z"/><path class="cls-2" d="M33.36,57.95s-.2.42-.32.44c-1.39.21-1.26,2.14-.5,3.29l17.41,28.63-21.4-30.66c-.48-.68-.06-1.7.7-1.7h4.11"/><path class="cls-2" d="M40.93,60.77s-.2.42-.32.44c-1.39.21-1.26,2.14-.5,3.29l10.8,20.57-.13.06-14.73-22.64c-.46-.71-.02-1.72.74-1.72h4.13"/><path class="cls-2" d="M56.59,76.15l-3.03,9.64c-.12.43-.89,1.24-1.5,1.16l-2.78-.06s2.09-.57,2.68-1.11c2.24-2.06,4.63-10.32,4.63-10.32v.68Z"/><path class="cls-2" d="M49.4,91.22l-8.89.02c-.39.02-1.31-.54-1.46-1.23l-.9-3.04s1.18,2.07,1.82,2.53c2.45,1.72,9.99,1.49,9.99,1.49l-.56.23Z"/><path class="cls-2" d="M56.4,88.01c.79,0,1.8.36,1.43,2.25-.44,2.24-1.43,3.49-1.43,3.49,0,0-.97-1.3-1.43-3.49-.37-1.74.64-2.25,1.43-2.25Z"/><path class="cls-2" d="M79.34,57.95h-18.2c-.92,0-1.68.86-1.69,1.92l-.07,5.54.25-.5c.1-2.08.64-4.08,1.1-4.69.96-1.25,18.83-1.93,18.83-1.93l-.21-.34Z"/><path class="cls-2" d="M79.56,57.95s.2.42.32.44c1.39.21,1.26,2.14.5,3.29l-17.41,28.63,21.4-30.66c.48-.68.06-1.7-.7-1.7h-4.11"/><path class="cls-2" d="M71.99,60.77s.2.42.32.44c1.39.21,1.26,2.14.5,3.29l-10.8,20.57.13.06,14.73-22.64c.46-.71.02-1.72-.74-1.72h-4.13"/><path class="cls-2" d="M56.33,76.15l3.03,9.64c.12.43.89,1.24,1.5,1.16l2.78-.06s-2.09-.57-2.68-1.11c-2.24-2.06-4.63-10.32-4.63-10.32v.68Z"/><path class="cls-2" d="M63.53,91.22l8.89.02c.39.02,1.31-.54,1.46-1.23l.9-3.04s-1.18,2.07-1.82,2.53c-2.45,1.72-9.99,1.49-9.99,1.49l.56.23Z"/><circle class="cls-2" cx="56.59" cy="61.68" r="1.94"/></svg>