<?xml version="1.0" encoding="UTF-8"?><svg id="Layer_1" xmlns="http://www.w3.org/2000/svg" viewBox="0 0 255.12 255.12"><defs><style>.cls-1{fill:#a47865;}.cls-2{fill:#6b5851;}.cls-3{fill:#f0e8de;}</style></defs><path class="cls-2" d="M79.38,158.93l-33.67,48.06c-1.6,2.27-2.48,3.66-2.64,4.16-.16.51-.07.93.27,1.26.34.33,1.24.5,2.71.5l-.39.56h-11.58s3.01-3.91,4.77-6.4l29.25-41.44c1.83-2.59,2.76-4.29,2.79-5.09.03-.8-.92-1.15-2.86-1.05l.39-.56h10.95Z"/><path class="cls-2" d="M78.46,207.41c0,.14,0,.28,0,.41-.02,1.11-.3,3.37-3.31,3.37,0,0-20.35,1.65-20.35,1.65l-.23.63h28.61s.05-2.94.05-4.53v-22.86h-4.76v21.34Z"/><path class="cls-2" d="M66.23,158.93h-23.5l-.27,6.63h.51c.32-2.11.99-3.3,1.68-3.98,1.77-1.72,21.26-2.16,21.26-2.16l.32-.49Z"/><path class="cls-2" d="M209.62,213.43s0,.02.08-.4c-4.72-.16-6.2-1.16-7.69-1.93-1.49-.77-3.61-2.9-6.35-6.41s-4.42-5.77-5.06-6.81l-2.91-4.14c2.3-1.21,4.08-2.69,5.34-4.45,1.26-1.76,1.89-3.6,1.89-5.54,0-1.69-.35-3.13-1.06-4.29-.71-1.17-1.76-2.09-3.15-2.78s-2.75-1.09-4.08-1.21c-1.33-.12-3.47-.18-6.44-.18h-15.98s2.02.68,2.39,1.17c1.5-.02,5.34-.16,5.34-.16h7.66c4.08,0,6.93,1.05,8.55,3.15,1.62,2.1,2.43,4.32,2.43,6.67s-.82,4.37-2.47,5.86c-1.65,1.49-4.17,2.44-7.58,2.44l-5.26.05,3.18.72h1.1l3.68-.1,4.15,5.9s.02.07.06.1c4.26,5.87,7.25,9.46,8.97,10.77,1.72,1.31,3.75,1.56,6.14,1.56h7.09Z"/><path class="cls-2" d="M217.87,186.07h-4.76v22.91c0,.97-.05,1.74-.16,2.32-.07.42-.18.74-.3.96-.58.3-1.19.56-1.84.77-.24.02-.49.04-.77.04v.39h11.01v-.39c-1.03,0-1.74-.12-2.14-.35-.4-.23-.67-.53-.81-.88s-.21-1.33-.21-2.91v-22.86Z"/><path class="cls-2" d="M181.19,213.08c-.11.01-.26,0-.39,0-.44,0-.95-.06-1.58-.22-.81-.21-1.41-.51-1.81-.9-.4-.4-1.13-1.34-2.17-2.82l-20.64-29.24c-1.12-1.59-1.73-2.55-1.84-2.91-.06-.18-.07-.35-.03-.5.03-.14.11-.27.22-.38.24-.23.87-.35,1.89-.35l-.27-.39h-7.96l13.62,19.24h-13.44l2.99.54,11.2.53,8.45,11.98.81,1.15c.12.17.22.32.33.47,0,.01.01.02.02.03.1.15.2.29.29.43.83,1.26,1.27,2.12,1.3,2.59,0,0,0,.02,0,.03.02.4-.33.64-1.04.72-.27.03-.59.04-.96.02l.27.39h10.99l-.27-.39Z"/><path class="cls-2" d="M115.54,184.63l15.97-21.98.09,7.31v37.05c0,2.49-.24,4.09-.72,4.79-.48.7-1.71,1.05-3.68,1.05v.56h14.59v-.56c-1.47,0-2.49-.17-3.06-.5-.57-.33-.96-.75-1.16-1.26-.2-.51-.3-1.89-.3-4.16v-41.85c0-2.12.09-3.47.26-4.03.04-.12.1-.22.17-.33.79-.75,1.96-1.17,3.53-1.24v-.07c.19,0,.38,0,.57.02v-.56h-10.52l-15.73,24.73"/><path class="cls-2" d="M115.54,185.1l-13.73-19.69c-1.6-2.27-4.45-6.48-4.45-6.48h-11.33l.39.56c1.97,0,3.45.35,4.43,1.05.98.7,2.34,2.3,4.1,4.79l6.7,9.5,11.13,15.77,2.75-5.5Z"/><ellipse class="cls-2" cx="215.53" cy="177.65" rx="3.98" ry="3.6"/><ellipse class="cls-2" cx="80.56" cy="178.07" rx="3.98" ry="3.6"/><circle class="cls-1" cx="127.56" cy="90.13" r="48.48"/><path class="cls-3" d="M101.03,88.68h21.1c1.07,0,1.95-.99,1.96-2.23l.08-6.43-.29.58c-.11,2.41-.74,4.74-1.27,5.44-1.11,1.45-21.83,2.24-21.83,2.24l.25.39Z"/><path class="cls-3" d="M100.77,88.68s-.23-.49-.37-.51c-1.61-.24-1.46-2.48-.58-3.81l20.19-33.19-24.82,35.55c-.55.79-.06,1.97.82,1.97h4.76"/><path class="cls-3" d="M109.56,85.41s-.23-.49-.37-.51c-1.61-.24-1.46-2.48-.58-3.81l12.53-23.85-.15-.07-17.08,26.25c-.53.82-.03,1.99.86,1.99h4.79"/><path class="cls-3" d="M127.71,67.57l-3.51-11.18c-.14-.49-1.03-1.44-1.74-1.35l-3.23.07s2.43.66,3.11,1.29c2.59,2.39,5.37,11.97,5.37,11.97v-.79Z"/><path class="cls-3" d="M119.37,50.1l-10.3-.02c-.45-.02-1.52.63-1.69,1.43l-1.05,3.52s1.37-2.4,2.11-2.93c2.84-1.99,11.58-1.73,11.58-1.73l-.65-.27Z"/><path class="cls-3" d="M127.49,53.83c.92,0,2.09-.41,1.66-2.61-.51-2.6-1.66-4.04-1.66-4.04,0,0-1.12,1.51-1.66,4.04-.43,2.02.74,2.61,1.66,2.61Z"/><path class="cls-3" d="M154.09,88.68h-21.1c-1.07,0-1.95-.99-1.96-2.23l-.08-6.43.29.58c.11,2.41.74,4.74,1.27,5.44,1.11,1.45,21.83,2.24,21.83,2.24l-.25.39Z"/><path class="cls-3" d="M154.34,88.68s.23-.49.37-.51c1.61-.24,1.46-2.48.58-3.81l-20.19-33.19,24.82,35.55c.55.79.06,1.97-.82,1.97h-4.76"/><path class="cls-3" d="M145.56,85.41s.23-.49.37-.51c1.61-.24,1.46-2.48.58-3.81l-12.53-23.85.15-.07,17.08,26.25c.53.82.03,1.99-.86,1.99h-4.79"/><path class="cls-3" d="M127.41,67.57l3.51-11.18c.14-.49,1.03-1.44,1.74-1.35l3.23.07s-2.43.66-3.11,1.29c-2.59,2.39-5.37,11.97-5.37,11.97v-.79Z"/><path class="cls-3" d="M135.75,50.1l10.3-.02c.45-.02,1.52.63,1.69,1.43l1.05,3.52s-1.37-2.4-2.11-2.93c-2.84-1.99-11.58-1.73-11.58-1.73l.65-.27Z"/><circle class="cls-3" cx="127.71" cy="84.35" r="2.25"/><path class="cls-2" d="M101.03,91.59h21.1c1.07,0,1.95.99,1.96,2.23l.08,6.43-.29-.58c-.11-2.41-.74-4.74-1.27-5.44-1.11-1.45-21.83-2.24-21.83-2.24l.25-.39Z"/><path class="cls-2" d="M100.77,91.59s-.23.49-.37.51c-1.61.24-1.46,2.48-.58,3.81l20.19,33.19-24.82-35.55c-.55-.79-.06-1.97.82-1.97h4.76"/><path class="cls-2" d="M109.56,94.86s-.23.49-.37.51c-1.61.24-1.46,2.48-.58,3.81l12.53,23.85-.15.07-17.08-26.25c-.53-.82-.03-1.99.86-1.99h4.79"/><path class="cls-2" d="M127.71,112.7l-3.51,11.18c-.14.49-1.03,1.44-1.74,1.35l-3.23-.07s2.43-.66,3.11-1.29c2.59-2.39,5.37-11.97,5.37-11.97v.79Z"/><path class="cls-2" d="M119.37,130.16l-10.3.02c-.45.02-1.52-.63-1.69-1.43l-1.05-3.52s1.37,2.4,2.11,2.93c2.84,1.99,11.58,1.73,11.58,1.73l-.65.27Z"/><path class="cls-2" d="M127.49,126.44c.92,0,2.09.41,1.66,2.61-.51,2.6-1.66,4.04-1.66,4.04,0,0-1.12-1.51-1.66-4.04-.43-2.02.74-2.61,1.66-2.61Z"/><path class="cls-2" d="M154.09,91.59h-21.1c-1.07,0-1.95.99-1.96,2.23l-.08,6.43.29-.58c.11-2.41.74-4.74,1.27-5.44,1.11-1.45,21.83-2.24,21.83-2.24l-.25-.39Z"/><path class="cls-2" d="M154.34,91.59s.23.49.37.51c1.61.24,1.46,2.48.58,3.81l-20.19,33.19,24.82-35.55c.55-.79.06-1.97-.82-1.97h-4.76"/><path class="cls-2" d="M145.56,94.86s.23.49.37.51c1.61.24,1.46,2.48.58,3.81l-12.53,23.85.15.07,17.08-26.25c.53-.82.03-1.99-.86-1.99h-4.79"/><path class="cls-2" d="M127.41,112.7l3.51,11.18c.14.49,1.03,1.44,1.74,1.35l3.23-.07s-2.43-.66-3.11-1.29c-2.59-2.39-5.37-11.97-5.37-11.97v.79Z"/><path class="cls-2" d="M135.75,130.16l10.3.02c.45.02,1.52-.63,1.69-1.43l1.05-3.52s-1.37,2.4-2.11,2.93c-2.84,1.99-11.58,1.73-11.58,1.73l.65.27Z"/><circle class="cls-2" cx="127.71" cy="95.92" r="2.25"/></svg>