<?xml version="1.0" encoding="UTF-8"?><svg id="Layer_1" xmlns="http://www.w3.org/2000/svg" viewBox="0 0 226.77 226.77"><defs><style>.cls-1{fill:#6b5851;}</style></defs><g id="_Radial_Repeat_"><path class="cls-1" d="M186.84,212.6h-58.43c-2.97,0-5.39-2.75-5.43-6.18l-.21-17.79.79,1.62c.31,6.68,2.04,13.11,3.53,15.06,3.08,4.02,60.45,6.21,60.45,6.21l-.68,1.08Z"/><path class="cls-1" d="M187.55,212.6s.63-1.36,1.03-1.42c4.45-.67,4.04-6.87,1.6-10.56l-55.9-91.91,68.72,98.43c1.53,2.19.18,5.46-2.26,5.46h-13.18"/><path class="cls-1" d="M163.23,203.55s.63-1.36,1.03-1.42c4.45-.67,4.04-6.87,1.6-10.56l-34.69-66.04.41-.18,47.3,72.68c1.48,2.27.07,5.52-2.39,5.52h-13.27"/><polygon class="cls-1" points="96.56 103.44 95.57 104.86 96.41 103.44 96.56 103.44"/><path class="cls-1" d="M112.97,154.16l9.73-30.96c.38-1.37,2.86-3.98,4.82-3.73l8.93.19s-6.71,1.83-8.6,3.57c-7.18,6.63-14.87,33.13-14.87,33.13v-2.2Z"/><path class="cls-1" d="M136.07,105.8l28.53-.05c1.24-.06,4.22,1.74,4.69,3.95l2.9,9.75s-3.79-6.66-5.85-8.11c-7.85-5.52-32.06-4.78-32.06-4.78l1.79-.75Z"/><path class="cls-1" d="M113.58,116.11c-2.54,0-5.79-1.14-4.61-7.23,1.4-7.19,4.61-11.19,4.61-11.19,0,0,3.11,4.18,4.61,11.19,1.19,5.59-2.06,7.23-4.61,7.23Z"/><path class="cls-1" d="M39.93,212.6h58.43c2.97,0,5.39-2.75,5.43-6.18l.21-17.79-.79,1.62c-.31,6.68-2.04,13.11-3.53,15.06-3.08,4.02-60.45,6.21-60.45,6.21l.68,1.08Z"/><path class="cls-1" d="M39.22,212.6s-.63-1.36-1.03-1.42c-4.45-.67-4.04-6.87-1.6-10.56l55.9-91.91L23.78,207.14c-1.53,2.19-.18,5.46,2.26,5.46h13.18"/><path class="cls-1" d="M63.54,203.55s-.63-1.36-1.03-1.42c-4.45-.67-4.04-6.87-1.6-10.56l34.69-66.04-.41-.18-47.3,72.68c-1.48,2.27-.07,5.52,2.39,5.52h13.27"/><polygon class="cls-1" points="130.21 103.44 131.21 104.86 130.36 103.44 130.21 103.44"/><path class="cls-1" d="M113.8,154.16l-9.73-30.96c-.38-1.37-2.86-3.98-4.82-3.73l-8.93.19s6.71,1.83,8.6,3.57c7.18,6.63,14.87,33.13,14.87,33.13v-2.2Z"/><path class="cls-1" d="M90.71,105.8l-28.53-.05c-1.24-.06-4.22,1.74-4.69,3.95l-2.9,9.75s3.79-6.66,5.85-8.11c7.85-5.52,32.06-4.78,32.06-4.78l-1.79-.75Z"/><circle class="cls-1" cx="112.97" cy="200.62" r="6.24"/></g><g id="_Radial_Repeat_-2"><path class="cls-1" d="M14.17,186.84v-58.43c0-2.97,2.75-5.39,6.18-5.43l17.79-.21-1.62.79c-6.68.31-13.11,2.04-15.06,3.53-4.02,3.08-6.21,60.45-6.21,60.45l-1.08-.68Z"/><path class="cls-1" d="M14.17,187.55s1.36.63,1.42,1.03c.67,4.45,6.87,4.04,10.56,1.6l91.91-55.9L19.63,202.99c-2.19,1.53-5.46.18-5.46-2.26v-13.18"/><path class="cls-1" d="M23.22,163.23s1.36.63,1.42,1.03c.67,4.45,6.87,4.04,10.56,1.6l66.04-34.69.18.41-72.68,47.3c-2.27,1.48-5.52.07-5.52-2.39v-13.27"/><polygon class="cls-1" points="123.33 96.56 121.91 95.57 123.33 96.41 123.33 96.56"/><path class="cls-1" d="M72.62,112.97l30.96,9.73c1.37.38,3.98,2.86,3.73,4.82l-.19,8.93s-1.83-6.71-3.57-8.6c-6.63-7.18-33.13-14.87-33.13-14.87h2.2Z"/><path class="cls-1" d="M120.97,136.07l.05,28.53c.06,1.24-1.74,4.22-3.95,4.69l-9.75,2.9s6.66-3.79,8.11-5.85c5.52-7.85,4.78-32.06,4.78-32.06l.75,1.79Z"/><path class="cls-1" d="M110.66,113.58c0-2.54,1.14-5.79,7.23-4.61,7.19,1.4,11.19,4.61,11.19,4.61,0,0-4.18,3.11-11.19,4.61-5.59,1.19-7.23-2.06-7.23-4.61Z"/><path class="cls-1" d="M14.17,39.93v58.43c0,2.97,2.75,5.39,6.18,5.43l17.79.21-1.62-.79c-6.68-.31-13.11-2.04-15.06-3.53-4.02-3.08-6.21-60.45-6.21-60.45l-1.08.68Z"/><path class="cls-1" d="M14.17,39.22s1.36-.63,1.42-1.03c.67-4.45,6.87-4.04,10.56-1.6l91.91,55.9L19.63,23.78c-2.19-1.53-5.46-.18-5.46,2.26v13.18"/><path class="cls-1" d="M23.22,63.54s1.36-.63,1.42-1.03c.67-4.45,6.87-4.04,10.56-1.6l66.04,34.69.18-.41L28.74,47.88c-2.27-1.48-5.52-.07-5.52,2.39v13.27"/><polygon class="cls-1" points="123.33 130.21 121.91 131.2 123.33 130.36 123.33 130.21"/><path class="cls-1" d="M72.62,113.8l30.96-9.73c1.37-.38,3.98-2.86,3.73-4.82l-.19-8.93s-1.83,6.71-3.57,8.6c-6.63,7.18-33.13,14.87-33.13,14.87h2.2Z"/><path class="cls-1" d="M120.97,90.7l.05-28.53c.06-1.24-1.74-4.22-3.95-4.69l-9.75-2.9s6.66,3.79,8.11,5.85c5.52,7.85,4.78,32.06,4.78,32.06l.75-1.79Z"/><circle class="cls-1" cx="26.16" cy="112.97" r="6.24"/></g><g id="_Radial_Repeat_-3"><path class="cls-1" d="M39.93,14.17h58.43c2.97,0,5.39,2.75,5.43,6.18l.21,17.79-.79-1.62c-.31-6.68-2.04-13.11-3.53-15.06-3.08-4.02-60.45-6.21-60.45-6.21l.68-1.08Z"/><path class="cls-1" d="M39.22,14.17s-.63,1.36-1.03,1.42c-4.45.67-4.04,6.87-1.6,10.56l55.9,91.91L23.78,19.63c-1.53-2.19-.18-5.46,2.26-5.46h13.18"/><path class="cls-1" d="M63.54,23.22s-.63,1.36-1.03,1.42c-4.45.67-4.04,6.87-1.6,10.56l34.69,66.04-.41.18L47.88,28.74c-1.48-2.27-.07-5.52,2.39-5.52h13.27"/><polygon class="cls-1" points="130.21 123.33 131.21 121.91 130.36 123.33 130.21 123.33"/><path class="cls-1" d="M113.8,72.62l-9.73,30.96c-.38,1.37-2.86,3.98-4.82,3.73l-8.93-.19s6.71-1.83,8.6-3.57c7.18-6.63,14.87-33.13,14.87-33.13v2.2Z"/><path class="cls-1" d="M90.7,120.97l-28.53.05c-1.24.06-4.22-1.74-4.69-3.95l-2.9-9.75s3.79,6.66,5.85,8.11c7.85,5.52,32.06,4.78,32.06,4.78l-1.79.75Z"/><path class="cls-1" d="M113.19,110.66c2.54,0,5.79,1.14,4.61,7.23-1.4,7.19-4.61,11.19-4.61,11.19,0,0-3.11-4.18-4.61-11.19-1.19-5.59,2.06-7.23,4.61-7.23Z"/><path class="cls-1" d="M186.84,14.17h-58.43c-2.97,0-5.39,2.75-5.43,6.18l-.21,17.79.79-1.62c.31-6.68,2.04-13.11,3.53-15.06,3.08-4.02,60.45-6.21,60.45-6.21l-.68-1.08Z"/><path class="cls-1" d="M187.55,14.17s.63,1.36,1.03,1.42c4.45.67,4.04,6.87,1.6,10.56l-55.9,91.91L203,19.63c1.53-2.19.18-5.46-2.26-5.46h-13.18"/><path class="cls-1" d="M163.23,23.22s.63,1.36,1.03,1.42c4.45.67,4.04,6.87,1.6,10.56l-34.69,66.04.41.18,47.3-72.68c1.48-2.27.07-5.52-2.39-5.52h-13.27"/><polygon class="cls-1" points="96.56 123.33 95.57 121.91 96.41 123.33 96.56 123.33"/><path class="cls-1" d="M112.97,72.62l9.73,30.96c.38,1.37,2.86,3.98,4.82,3.73l8.93-.19s-6.71-1.83-8.6-3.57c-7.18-6.63-14.87-33.13-14.87-33.13v2.2Z"/><path class="cls-1" d="M136.07,120.97l28.53.05c1.24.06,4.22-1.74,4.69-3.95l2.9-9.75s-3.79,6.66-5.85,8.11c-7.85,5.52-32.06,4.78-32.06,4.78l1.79.75Z"/><circle class="cls-1" cx="113.8" cy="26.16" r="6.24"/></g><g id="_Radial_Repeat_-4"><path class="cls-1" d="M212.6,39.93v58.43c0,2.97-2.75,5.39-6.18,5.43l-17.79.21,1.62-.79c6.68-.31,13.11-2.04,15.06-3.53,4.02-3.08,6.21-60.45,6.21-60.45l1.08.68Z"/><path class="cls-1" d="M212.6,39.22s-1.36-.63-1.42-1.03c-.67-4.45-6.87-4.04-10.56-1.6l-91.91,55.9L207.14,23.78c2.19-1.53,5.46-.18,5.46,2.26v13.18"/><path class="cls-1" d="M203.55,63.54s-1.36-.63-1.42-1.03c-.67-4.45-6.87-4.04-10.56-1.6l-66.04,34.69-.18-.41,72.68-47.3c2.27-1.48,5.52-.07,5.52,2.39v13.27"/><polygon class="cls-1" points="103.44 130.21 104.86 131.2 103.44 130.36 103.44 130.21"/><path class="cls-1" d="M154.16,113.8l-30.96-9.73c-1.37-.38-3.98-2.86-3.73-4.82l.19-8.93s1.83,6.71,3.57,8.6c6.63,7.18,33.13,14.87,33.13,14.87h-2.2Z"/><path class="cls-1" d="M105.8,90.7l-.05-28.53c-.06-1.24,1.74-4.22,3.95-4.69l9.75-2.9s-6.66,3.79-8.11,5.85c-5.52,7.85-4.78,32.06-4.78,32.06l-.75-1.79Z"/><path class="cls-1" d="M116.11,113.19c0,2.54-1.14,5.79-7.23,4.61-7.19-1.4-11.19-4.61-11.19-4.61,0,0,4.18-3.11,11.19-4.61,5.59-1.19,7.23,2.06,7.23,4.61Z"/><path class="cls-1" d="M212.6,186.84v-58.43c0-2.97-2.75-5.39-6.18-5.43l-17.79-.21,1.62.79c6.68.31,13.11,2.04,15.06,3.53,4.02,3.08,6.21,60.45,6.21,60.45l1.08-.68Z"/><path class="cls-1" d="M212.6,187.55s-1.36.63-1.42,1.03c-.67,4.45-6.87,4.04-10.56,1.6l-91.91-55.9,98.43,68.72c2.19,1.53,5.46.18,5.46-2.26v-13.18"/><path class="cls-1" d="M203.55,163.23s-1.36.63-1.42,1.03c-.67,4.45-6.87,4.04-10.56,1.6l-66.04-34.69-.18.41,72.68,47.3c2.27,1.48,5.52.07,5.52-2.39v-13.27"/><polygon class="cls-1" points="103.44 96.56 104.86 95.57 103.44 96.41 103.44 96.56"/><path class="cls-1" d="M154.16,112.97l-30.96,9.73c-1.37.38-3.98,2.86-3.73,4.82l.19,8.93s1.83-6.71,3.57-8.6c6.63-7.18,33.13-14.87,33.13-14.87h-2.2Z"/><path class="cls-1" d="M105.8,136.07l-.05,28.53c-.06,1.24,1.74,4.22,3.95,4.69l9.75,2.9s-6.66-3.79-8.11-5.85c-5.52-7.85-4.78-32.06-4.78-32.06l-.75,1.79Z"/><circle class="cls-1" cx="200.62" cy="113.8" r="6.24"/></g></svg>