<?xml version="1.0" encoding="UTF-8"?><svg id="Layer_1" xmlns="http://www.w3.org/2000/svg" viewBox="0 0 226.77 226.77"><defs><style>.cls-1{fill:#6b5851;}.cls-2{fill:#f0e8de;}</style></defs><circle class="cls-1" cx="113.39" cy="113.39" r="99.15"/><g id="_Radial_Repeat_"><path class="cls-2" d="M160.65,189.91l-37.39.1c-1.9,0-3.45-1.75-3.49-3.94l-.17-11.38.51,1.03c.21,4.27,1.33,8.39,2.28,9.63,1.98,2.57,38.69,3.87,38.69,3.87l-.44.69Z"/><path class="cls-2" d="M161.1,189.9s.4-.87.66-.91c2.85-.44,2.58-4.4,1.01-6.76l-35.93-58.71,44.13,62.87c.98,1.4.12,3.49-1.44,3.5l-8.44.02"/><path class="cls-2" d="M145.53,184.16s.4-.87.66-.91c2.85-.44,2.58-4.4,1.01-6.76l-22.31-42.19.26-.12,30.39,46.42c.95,1.45.06,3.53-1.52,3.54l-8.49.02"/><polygon class="cls-2" points="102.7 120.21 102.07 121.13 102.6 120.21 102.7 120.21"/><path class="cls-2" d="M113.29,152.64l6.17-19.83c.24-.88,1.83-2.55,3.08-2.4l5.71.11s-4.29,1.18-5.5,2.3c-4.59,4.25-9.46,21.22-9.46,21.22v-1.41Z"/><path class="cls-2" d="M127.98,121.66l18.26-.08c.79-.04,2.7,1.11,3.01,2.52l1.87,6.23s-2.43-4.25-3.76-5.18c-5.03-3.52-20.52-3.01-20.52-3.01l1.14-.48Z"/><path class="cls-2" d="M113.61,128.29c-1.63,0-3.71-.72-2.96-4.62.89-4.6,2.93-7.17,2.93-7.17,0,0,2,2.67,2.97,7.15.77,3.57-1.31,4.63-2.93,4.63Z"/><path class="cls-2" d="M66.65,190.16l37.39-.1c1.9,0,3.44-1.77,3.47-3.96l.11-11.38-.5,1.04c-.19,4.27-1.28,8.39-2.23,9.64-1.96,2.58-38.67,4.08-38.67,4.08l.44.69Z"/><path class="cls-2" d="M66.2,190.16s-.41-.87-.66-.91c-2.85-.42-2.6-4.39-1.04-6.75l35.61-58.9-43.8,63.1c-.98,1.41-.11,3.49,1.46,3.49l8.44-.02"/><path class="cls-2" d="M81.74,184.33s-.41-.87-.66-.91c-2.85-.42-2.6-4.39-1.04-6.75l22.08-42.31-.27-.12-30.14,46.58c-.94,1.46-.04,3.53,1.54,3.53l8.49-.02"/><polygon class="cls-2" points="124.23 120.16 124.87 121.06 124.33 120.16 124.23 120.16"/><path class="cls-2" d="M113.81,152.64l-6.28-19.8c-.24-.87-1.84-2.54-3.09-2.38l-5.71.14s4.3,1.16,5.51,2.27c4.61,4.23,9.57,21.17,9.57,21.17v-1.41Z"/><path class="cls-2" d="M98.96,121.73h-18.26c-.79-.02-2.7,1.14-2.99,2.55l-1.84,6.24s2.41-4.27,3.73-5.2c5.02-3.55,20.5-3.12,20.5-3.12l-1.15-.48Z"/><circle class="cls-2" cx="113.37" cy="182.36" r="3.99"/></g><g id="_Radial_Repeat_-2"><path class="cls-2" d="M55.63,182.29l-11.65-35.53c-.59-1.8.6-3.82,2.67-4.53l10.77-3.68-.83.8c-4,1.52-7.57,3.85-8.45,5.15-1.83,2.68,8.27,37.99,8.27,37.99l-.79-.2Z"/><path class="cls-2" d="M55.77,182.72s.96.11,1.07.34c1.29,2.57,4.98,1.09,6.74-1.13l44.74-52.31-46.15,61.4c-1.03,1.37-3.28,1.2-3.77-.29l-2.63-8.02"/><path class="cls-2" d="M56.43,166.14s.96.11,1.07.34c1.29,2.57,4.98,1.09,6.74-1.13l33.24-34.25.19.22-34.76,43.25c-1.09,1.35-3.34,1.15-3.83-.35l-2.65-8.07"/><polygon class="cls-2" points="104.01 105.64 102.94 105.32 103.98 105.55 104.01 105.64"/><path class="cls-2" d="M76.44,125.73l20.76-.26c.91-.04,2.99.95,3.23,2.19l1.66,5.47s-2.45-3.72-3.89-4.52c-5.46-3.05-23.11-2.44-23.11-2.44l1.34-.44Z"/><path class="cls-2" d="M110.45,130.13l5.72,17.34c.28.74-.22,2.91-1.47,3.64l-5.35,3.71s3.29-3.63,3.76-5.17c1.79-5.88-3.48-20.44-3.48-20.44l.81.94Z"/><path class="cls-2" d="M99.69,118.52c-.51-1.55-.46-3.75,3.48-4.24,4.65-.58,7.72.57,7.72.57,0,0-1.92,2.73-5.89,5.03-3.16,1.84-4.81.19-5.31-1.36Z"/><path class="cls-2" d="M26.35,92.97l11.65,35.53c.59,1.8,2.75,2.73,4.84,2.07l10.86-3.42-1.14-.16c-4.12,1.14-8.38,1.37-9.86.86-3.06-1.07-15.83-35.51-15.83-35.51l-.52.63Z"/><path class="cls-2" d="M26.21,92.54s.7-.66.66-.91c-.48-2.84,3.37-3.83,6.1-3.08l67.02,15.67-73.55-22.16c-1.64-.49-3.35.98-2.87,2.46l2.63,8.02"/><path class="cls-2" d="M36.55,105.52s.7-.66.66-.91c-.48-2.84,3.37-3.83,6.1-3.08l47.06,7.93.03-.29-53.62-14.27c-1.68-.45-3.37,1.06-2.88,2.55l2.65,8.07"/><polygon class="cls-2" points="110.71 126.1 110.05 126.99 110.74 126.19 110.71 126.1"/><path class="cls-2" d="M76.61,126.23l16.89-12.09c.76-.5,1.85-2.54,1.31-3.67l-1.9-5.39s.23,4.45-.46,5.94c-2.6,5.69-17.18,15.65-17.18,15.65l1.34-.44Z"/><path class="cls-2" d="M101.4,102.55l-5.66-17.36c-.21-.77-1.9-2.22-3.33-2.06l-6.51.18s4.8.97,6.1,1.94c4.92,3.67,9.3,18.54,9.3,18.54l.1-1.24Z"/><circle class="cls-2" cx="48.19" cy="134.99" r="3.99"/></g><g id="_Radial_Repeat_-3"><path class="cls-2" d="M30.42,80.06l30.19-22.06c1.53-1.12,3.82-.61,5.14,1.14l6.83,9.11-1.02-.54c-2.68-3.33-6-6-7.51-6.45-3.11-.92-33.57,19.61-33.57,19.61l-.05-.82Z"/><path class="cls-2" d="M30.06,80.33s.19.94,0,1.12c-2.05,2.03.5,5.08,3.16,6.06l63.57,26.38-72.66-24.92c-1.62-.56-2.15-2.75-.89-3.67l6.81-4.98"/><path class="cls-2" d="M46.03,75.82s.19.94,0,1.12c-2.05,2.03.5,5.08,3.16,6.06l42.85,21.02-.14.25-51.87-19.7c-1.62-.62-2.12-2.83-.85-3.76l6.86-5.01"/><polygon class="cls-2" points="118.27 102.38 118.25 101.27 118.35 102.33 118.27 102.38"/><path class="cls-2" d="M90.65,82.37l6.66,19.67c.32.85.02,3.14-1.08,3.75l-4.69,3.27s2.78-3.48,3.1-5.09c1.21-6.14-4.82-22.73-4.82-22.73l.83,1.14Z"/><path class="cls-2" d="M96.97,116.08l-14.72,10.8c-.62.5-2.84.69-3.91-.27l-5.18-3.94s4.47,2.01,6.08,1.98c6.14-.11,18.37-9.63,18.37-9.63l-.64,1.06Z"/><path class="cls-2" d="M104.69,102.26c1.31-.96,3.43-1.6,5.11,2,1.99,4.25,1.84,7.52,1.84,7.52,0,0-3.19-.98-6.6-4.04-2.72-2.44-1.66-4.51-.35-5.47Z"/><path class="cls-2" d="M106.32,24.61l-30.19,22.06c-1.53,1.12-1.75,3.45-.48,5.24l6.6,9.27-.2-1.13c-2.36-3.57-3.9-7.54-3.86-9.11.07-3.24,28.88-26.03,28.88-26.03l-.76-.3Z"/><path class="cls-2" d="M106.69,24.34s.84.47,1.07.35c2.55-1.33,4.68,2.02,4.81,4.85l5.81,68.59-1.65-76.79c-.04-1.71-1.97-2.89-3.23-1.97l-6.81,4.98"/><path class="cls-2" d="M97.54,38.19s.84.47,1.07.35c2.55-1.33,4.68,2.02,4.81,4.85l7.01,47.21.28-.06-3-55.4c-.09-1.73-2.05-2.88-3.32-1.95l-6.86,5.01"/><polygon class="cls-2" points="100.88 115.08 99.83 114.72 100.81 115.14 100.88 115.08"/><path class="cls-2" d="M90.22,82.69l16.71,12.33c.71.56,2.98.98,3.9.11l4.54-3.47s-4.16,1.59-5.79,1.4c-6.21-.71-20.19-11.5-20.19-11.5l.83,1.14Z"/><path class="cls-2" d="M120.4,98.95l14.76-10.74c.66-.44,1.52-2.49.93-3.81l-2.18-6.13s.56,4.87.04,6.4c-1.97,5.82-14.76,14.57-14.76,14.57l1.21-.29Z"/><circle class="cls-2" cx="73.11" cy="58.37" r="3.99"/></g><g id="_Radial_Repeat_-4"><path class="cls-2" d="M119.86,24.49l30.31,21.9c1.54,1.11,1.76,3.44.5,5.24l-6.56,9.31.2-1.14c2.34-3.58,3.86-7.56,3.81-9.13-.09-3.24-29.02-25.87-29.02-25.87l.76-.3Z"/><path class="cls-2" d="M119.49,24.23s-.84.47-1.07.35c-2.56-1.32-4.67,2.05-4.79,4.88l-5.45,68.62,1.25-76.8c.03-1.71,1.95-2.9,3.22-1.98l6.84,4.94"/><path class="cls-2" d="M128.71,38.03s-.84.47-1.07.35c-2.56-1.32-4.67,2.05-4.79,4.88l-6.76,47.25-.28-.06,2.7-55.42c.08-1.73,2.03-2.89,3.31-1.97l6.88,4.97"/><polygon class="cls-2" points="125.78 114.94 126.82 114.57 125.85 115 125.78 114.94"/><path class="cls-2" d="M136.27,82.49l-16.65,12.41c-.71.57-2.98.99-3.9.13l-4.56-3.44s4.17,1.57,5.8,1.37c6.21-.75,20.13-11.61,20.13-11.61l-.82,1.14Z"/><path class="cls-2" d="M106.17,98.91l-14.82-10.66c-.67-.44-1.54-2.49-.95-3.8l2.15-6.15s-.53,4.87,0,6.4c2,5.81,14.83,14.49,14.83,14.49l-1.21-.28Z"/><path class="cls-2" d="M121.7,101.99c1.32.95,2.58,2.76-.32,5.47-3.42,3.2-6.58,4.08-6.58,4.08,0,0-.05-3.34,1.8-7.53,1.48-3.34,3.78-2.98,5.1-2.02Z"/><path class="cls-2" d="M196.05,79.55l-30.31-21.9c-1.54-1.11-3.82-.59-5.13,1.17l-6.78,9.15,1.02-.54c2.66-3.35,5.97-6.04,7.47-6.49,3.11-.93,33.68,19.43,33.68,19.43l.05-.82Z"/><path class="cls-2" d="M196.42,79.81s-.18.94,0,1.12c2.06,2.01-.48,5.08-3.13,6.08l-63.43,26.72,72.52-25.3c1.62-.56,2.14-2.76.87-3.68l-6.84-4.94"/><path class="cls-2" d="M180.42,75.39s-.18.94,0,1.12c2.06,2.01-.48,5.08-3.13,6.08l-42.73,21.25.15.25,51.77-19.97c1.62-.62,2.11-2.84.83-3.76l-6.88-4.97"/><polygon class="cls-2" points="108.32 102.33 108.34 101.22 108.25 102.27 108.32 102.33"/><path class="cls-2" d="M135.84,82.18l-6.56,19.7c-.32.85,0,3.14,1.1,3.74l4.7,3.25s-2.8-3.46-3.12-5.08c-1.24-6.13,4.7-22.76,4.7-22.76l-.82,1.14Z"/><path class="cls-2" d="M129.7,115.91l14.78,10.72c.62.5,2.84.68,3.91-.29l5.16-3.97s-4.46,2.03-6.07,2.01c-6.14-.08-18.42-9.53-18.42-9.53l.65,1.06Z"/><circle class="cls-2" cx="153.68" cy="58.39" r="3.99"/></g><g id="_Radial_Repeat_-5"><path class="cls-2" d="M200.34,92.38l-11.46,35.59c-.58,1.81-2.73,2.74-4.83,2.1l-10.88-3.36,1.14-.16c4.13,1.12,8.39,1.33,9.86.8,3.05-1.09,15.64-35.6,15.64-35.6l.52.63Z"/><path class="cls-2" d="M200.48,91.95s-.71-.65-.66-.91c.47-2.84-3.39-3.81-6.12-3.05l-66.94,16.02,73.43-22.55c1.64-.5,3.36.96,2.88,2.45l-2.59,8.03"/><path class="cls-2" d="M190.2,104.99s-.71-.65-.66-.91c.47-2.84-3.39-3.81-6.12-3.05l-47.02,8.18-.03-.29,53.54-14.55c1.68-.46,3.38,1.04,2.9,2.54l-2.6,8.08"/><polygon class="cls-2" points="116.15 125.96 116.82 126.84 116.12 126.05 116.15 125.96"/><path class="cls-2" d="M150.26,125.91l-16.95-12c-.76-.5-1.86-2.53-1.33-3.67l1.87-5.4s-.2,4.45.49,5.94c2.63,5.68,17.26,15.55,17.26,15.55l-1.34-.43Z"/><path class="cls-2" d="M125.34,102.36l5.56-17.39c.21-.77,1.89-2.23,3.32-2.08l6.51.14s-4.8,1-6.09,1.97c-4.9,3.7-9.2,18.59-9.2,18.59l-.11-1.24Z"/><path class="cls-2" d="M127.21,118.08c-.5,1.55-1.83,3.3-5.31,1.39-4.11-2.27-5.91-5-5.91-5,0,0,3.16-1.08,7.72-.61,3.64.37,4,2.67,3.5,4.22Z"/><path class="cls-2" d="M171.53,181.86l11.46-35.59c.58-1.81-.62-3.82-2.7-4.52l-10.79-3.62.83.8c4.01,1.5,7.59,3.81,8.48,5.1,1.85,2.67-8.07,38.03-8.07,38.03l.79-.2Z"/><path class="cls-2" d="M171.39,182.29s-.95.12-1.07.35c-1.28,2.58-4.98,1.12-6.75-1.1l-45.01-52.07,46.48,61.16c1.04,1.36,3.29,1.18,3.77-.31l2.59-8.03"/><path class="cls-2" d="M170.65,165.71s-.95.12-1.07.35c-1.28,2.58-4.98,1.12-6.75-1.1l-33.42-34.08-.19.22,34.99,43.06c1.09,1.35,3.35,1.13,3.83-.37l2.6-8.08"/><polygon class="cls-2" points="122.75 105.47 123.81 105.14 122.78 105.37 122.75 105.47"/><path class="cls-2" d="M150.42,125.41l-20.77-.15c-.91-.04-2.99.96-3.22,2.2l-1.64,5.48s2.43-3.73,3.86-4.54c5.45-3.08,23.1-2.56,23.1-2.56l-1.34-.43Z"/><path class="cls-2" d="M116.44,129.99l-5.63,17.37c-.28.74.23,2.91,1.49,3.63l5.37,3.68s-3.31-3.61-3.79-5.15c-1.82-5.87,3.37-20.46,3.37-20.46l-.81.94Z"/><circle class="cls-2" cx="178.56" cy="135.02" r="3.99"/></g></svg>