<?xml version="1.0" encoding="UTF-8"?><svg id="Layer_1" xmlns="http://www.w3.org/2000/svg" viewBox="0 0 226.77 226.77"><defs><style>.cls-1{fill:#6b5851;}.cls-2{fill:#f0e8de;}</style></defs><circle class="cls-2" cx="113.39" cy="113.39" r="99.21"/><path class="cls-1" d="M212.68,113.39c.47,39.37-24.47,77.47-61.06,92.29C86.49,232.95,13.78,183.7,13.75,113.39,13.35,42.34,86.09-6.35,151.64,21.03c36.56,14.88,61.53,52.97,61.04,92.35h0ZM212.52,113.39c.4-39.21-25.12-76.54-61.45-90.99C86.41-4.22,14.86,43.44,14.6,113.39c-.25,70.6,71.53,117.83,136.5,91.05,36.31-14.51,61.84-51.82,61.42-91.05h0Z"/><g id="_Radial_Repeat_"><path class="cls-1" d="M147.56,80.52h-27.83c-1.41,0-2.57-1.31-2.59-2.94l-.1-8.47.38.77c.15,3.18.97,6.25,1.68,7.17,1.47,1.92,28.79,2.96,28.79,2.96l-.33.51Z"/><path class="cls-1" d="M147.9,80.52s.3-.65.49-.68c2.12-.32,1.93-3.27.76-5.03l-26.63-43.78,32.73,46.89c.73,1.04.09,2.6-1.08,2.6h-6.28"/><path class="cls-1" d="M136.32,76.22s.3-.65.49-.68c2.12-.32,1.93-3.27.76-5.03l-16.52-31.45.2-.09,22.53,34.62c.7,1.08.04,2.63-1.14,2.63h-6.32"/><polygon class="cls-1" points="104.56 28.53 104.08 29.21 104.49 28.53 104.56 28.53"/><path class="cls-1" d="M112.38,52.69l4.63-14.75c.18-.65,1.36-1.9,2.29-1.78l4.25.09s-3.2.87-4.1,1.7c-3.42,3.16-7.08,15.78-7.08,15.78v-1.05Z"/><path class="cls-1" d="M123.38,29.65l13.59-.03c.59-.03,2.01.83,2.23,1.88l1.38,4.64s-1.8-3.17-2.79-3.86c-3.74-2.63-15.27-2.28-15.27-2.28l.85-.36Z"/><path class="cls-1" d="M112.66,34.56c-1.21,0-2.76-.54-2.19-3.44.67-3.43,2.19-5.33,2.19-5.33,0,0,1.48,1.99,2.19,5.33.57,2.66-.98,3.44-2.19,3.44Z"/><path class="cls-1" d="M77.58,80.52h27.83c1.41,0,2.57-1.31,2.59-2.94l.1-8.47-.38.77c-.15,3.18-.97,6.25-1.68,7.17-1.47,1.92-28.79,2.96-28.79,2.96l.33.51Z"/><path class="cls-1" d="M77.25,80.52s-.3-.65-.49-.68c-2.12-.32-1.93-3.27-.76-5.03l26.63-43.78-32.73,46.89c-.73,1.04-.09,2.6,1.08,2.6h6.28"/><path class="cls-1" d="M88.83,76.22s-.3-.65-.49-.68c-2.12-.32-1.93-3.27-.76-5.03l16.52-31.45-.2-.09-22.53,34.62c-.7,1.08-.04,2.63,1.14,2.63h6.32"/><polygon class="cls-1" points="120.59 28.53 121.06 29.21 120.66 28.53 120.59 28.53"/><path class="cls-1" d="M112.77,52.69l-4.63-14.75c-.18-.65-1.36-1.9-2.29-1.78l-4.25.09s3.2.87,4.1,1.7c3.42,3.16,7.08,15.78,7.08,15.78v-1.05Z"/><path class="cls-1" d="M101.77,29.65l-13.59-.03c-.59-.03-2.01.83-2.23,1.88l-1.38,4.64s1.8-3.17,2.79-3.86c3.74-2.63,15.27-2.28,15.27-2.28l-.85-.36Z"/><circle class="cls-1" cx="112.38" cy="74.82" r="2.97"/></g><g id="_Radial_Repeat_-2"><path class="cls-1" d="M158.09,126.06l-13.92-24.1c-.71-1.22-.15-2.88,1.25-3.71l7.29-4.32-.48.71c-2.68,1.72-4.92,3.96-5.37,5.04-.93,2.23,11.83,26.41,11.83,26.41l-.61-.02Z"/><path class="cls-1" d="M158.26,126.35s.71-.06.83.09c1.34,1.68,3.8.03,4.74-1.85l24.6-44.95-24.24,51.79c-.54,1.15-2.21,1.37-2.79.37l-3.14-5.44"/><path class="cls-1" d="M156.2,114.17s.71-.06.83.09c1.34,1.68,3.8.03,4.74-1.85l18.98-30.04.17.13-18.72,36.82c-.59,1.15-2.26,1.35-2.85.33l-3.16-5.47"/><polygon class="cls-1" points="181.62 62.82 180.79 62.75 181.58 62.76 181.62 62.82"/><path class="cls-1" d="M164.6,81.67l15.09-3.36c.65-.17,2.32.23,2.69,1.1l2.05,3.73s-2.35-2.33-3.52-2.7c-4.45-1.39-17.21,1.76-17.21,1.76l.91-.52Z"/><path class="cls-1" d="M190.05,79.68l6.82,11.76c.32.5.29,2.16-.51,2.87l-3.33,3.52s1.84-3.15,1.95-4.35c.41-4.56-5.66-14.36-5.66-14.36l.74.56Z"/><path class="cls-1" d="M180.44,72.86c-.61-1.05-.91-2.66,1.88-3.62,3.3-1.13,5.71-.77,5.71-.77,0,0-.98,2.28-3.52,4.57-2.02,1.82-3.47.87-4.08-.18Z"/><path class="cls-1" d="M123.1,65.46l13.92,24.1c.71,1.22,2.42,1.57,3.84.77l7.39-4.15-.86.06c-2.83,1.46-5.89,2.28-7.05,2.13-2.39-.31-16.96-23.45-16.96-23.45l-.28.54Z"/><path class="cls-1" d="M122.93,65.17s.41-.59.34-.76c-.78-2,1.87-3.3,3.97-3.18l51.23,1.17-56.97-4.9c-1.27-.11-2.29,1.23-1.71,2.23l3.14,5.44"/><path class="cls-1" d="M132.45,73.04s.41-.59.34-.76c-.78-2,1.87-3.3,3.97-3.18l35.5-1.42-.02-.21-41.25-2.2c-1.29-.07-2.3,1.28-1.71,2.3l3.16,5.47"/><polygon class="cls-1" points="189.63 76.7 189.28 77.45 189.67 76.77 189.63 76.7"/><path class="cls-1" d="M164.8,82.01l10.46-11.39c.47-.48.96-2.13.39-2.88l-2.21-3.64s.85,3.2.58,4.4c-1.02,4.54-10.13,14.02-10.13,14.02l.91-.52Z"/><path class="cls-1" d="M179.25,60.97l-6.77-11.78c-.27-.53-1.72-1.33-2.74-.99l-4.71,1.12s3.65-.02,4.74.48c4.15,1.92,9.61,12.08,9.61,12.08l-.12-.92Z"/><circle class="cls-1" cx="145.44" cy="92.74" r="2.97"/></g><g id="_Radial_Repeat_-3"><path class="cls-1" d="M123.91,157.95l13.92-24.1c.71-1.22,2.42-1.57,3.84-.77l7.39,4.15-.86-.06c-2.83-1.46-5.89-2.28-7.05-2.13-2.39.31-16.96,23.45-16.96,23.45l-.28-.54Z"/><path class="cls-1" d="M123.74,158.24s.41.59.34.76c-.78,2,1.87,3.3,3.97,3.18l51.23-1.17-56.97,4.9c-1.27.11-2.29-1.23-1.71-2.23l3.14-5.44"/><path class="cls-1" d="M133.27,150.36s.41.59.34.76c-.78,2,1.87,3.3,3.97,3.18l35.5,1.42-.02.21-41.25,2.2c-1.29.07-2.3-1.28-1.71-2.3l3.16-5.47"/><polygon class="cls-1" points="190.44 146.7 190.09 145.96 190.48 146.64 190.44 146.7"/><path class="cls-1" d="M165.61,141.4l10.46,11.39c.47.48.96,2.13.39,2.88l-2.21,3.64s.85-3.2.58-4.4c-1.02-4.54-10.13-14.02-10.13-14.02l.91.52Z"/><path class="cls-1" d="M180.06,162.44l-6.77,11.78c-.27.53-1.72,1.33-2.74.99l-4.71-1.12s3.65.02,4.74-.48c4.15-1.92,9.61-12.08,9.61-12.08l-.12.92Z"/><path class="cls-1" d="M181.16,150.71c.61-1.05,1.85-2.12,4.08-.18,2.63,2.29,3.52,4.57,3.52,4.57,0,0-2.47.29-5.71-.77-2.59-.84-2.49-2.57-1.88-3.62Z"/><path class="cls-1" d="M158.9,97.35l-13.92,24.1c-.71,1.22-.15,2.88,1.25,3.71l7.29,4.32-.48-.71c-2.68-1.72-4.92-3.96-5.37-5.04-.93-2.23,11.83-26.41,11.83-26.41l-.61.02Z"/><path class="cls-1" d="M159.07,97.05s.71.06.83-.09c1.34-1.68,3.8-.03,4.74,1.85l24.6,44.95-24.24-51.79c-.54-1.15-2.21-1.37-2.79-.37l-3.14,5.44"/><path class="cls-1" d="M157.01,109.24s.71.06.83-.09c1.34-1.68,3.8-.03,4.74,1.85l18.98,30.04.17-.13-18.72-36.82c-.59-1.15-2.26-1.35-2.85-.33l-3.16,5.47"/><polygon class="cls-1" points="182.43 160.59 181.61 160.66 182.39 160.65 182.43 160.59"/><path class="cls-1" d="M165.42,141.74l15.09,3.36c.65.17,2.32-.23,2.69-1.1l2.05-3.73s-2.35,2.33-3.52,2.7c-4.45,1.39-17.21-1.76-17.21-1.76l.91.52Z"/><path class="cls-1" d="M190.87,143.73l6.82-11.76c.32-.5.29-2.16-.51-2.87l-3.33-3.52s1.84,3.15,1.95,4.35c.41,4.56-5.66,14.36-5.66,14.36l.74-.56Z"/><circle class="cls-1" cx="146.45" cy="130.33" r="2.97"/></g><g id="_Radial_Repeat_-4"><path class="cls-1" d="M79.21,144.3h27.83c1.41,0,2.57,1.31,2.59,2.94l.1,8.47-.38-.77c-.15-3.18-.97-6.25-1.68-7.17-1.47-1.92-28.79-2.96-28.79-2.96l.33-.51Z"/><path class="cls-1" d="M78.87,144.3s-.3.65-.49.68c-2.12.32-1.93,3.27-.76,5.03l26.63,43.78-32.73-46.89c-.73-1.04-.09-2.6,1.08-2.6h6.28"/><path class="cls-1" d="M90.46,148.6s-.3.65-.49.68c-2.12.32-1.93,3.27-.76,5.03l16.52,31.45-.2.09-22.53-34.62c-.7-1.08-.04-2.63,1.14-2.63h6.32"/><polygon class="cls-1" points="122.21 196.29 122.69 195.61 122.29 196.29 122.21 196.29"/><path class="cls-1" d="M114.4,172.13l-4.63,14.75c-.18.65-1.36,1.9-2.29,1.78l-4.25-.09s3.2-.87,4.1-1.7c3.42-3.16,7.08-15.78,7.08-15.78v1.05Z"/><path class="cls-1" d="M103.4,195.17l-13.59.03c-.59.03-2.01-.83-2.23-1.88l-1.38-4.64s1.8,3.17,2.79,3.86c3.74,2.63,15.27,2.28,15.27,2.28l-.85.36Z"/><path class="cls-1" d="M114.11,190.26c1.21,0,2.76.54,2.19,3.44-.67,3.43-2.19,5.33-2.19,5.33,0,0-1.48-1.99-2.19-5.33-.57-2.66.98-3.44,2.19-3.44Z"/><path class="cls-1" d="M149.19,144.3h-27.83c-1.41,0-2.57,1.31-2.59,2.94l-.1,8.47.38-.77c.15-3.18.97-6.25,1.68-7.17,1.47-1.92,28.79-2.96,28.79-2.96l-.33-.51Z"/><path class="cls-1" d="M149.53,144.3s.3.65.49.68c2.12.32,1.93,3.27.76,5.03l-26.63,43.78,32.73-46.89c.73-1.04.09-2.6-1.08-2.6h-6.28"/><path class="cls-1" d="M137.94,148.6s.3.65.49.68c2.12.32,1.93,3.27.76,5.03l-16.52,31.45.2.09,22.53-34.62c.7-1.08.04-2.63-1.14-2.63h-6.32"/><polygon class="cls-1" points="106.19 196.29 105.71 195.61 106.11 196.29 106.19 196.29"/><path class="cls-1" d="M114,172.13l4.63,14.75c.18.65,1.36,1.9,2.29,1.78l4.25-.09s-3.2-.87-4.1-1.7c-3.42-3.16-7.08-15.78-7.08-15.78v1.05Z"/><path class="cls-1" d="M125,195.17l13.59.03c.59.03,2.01-.83,2.23-1.88l1.38-4.64s-1.8,3.17-2.79,3.86c-3.74,2.63-15.27,2.28-15.27,2.28l.85.36Z"/><circle class="cls-1" cx="114.4" cy="150" r="2.97"/></g><g id="_Radial_Repeat_-5"><path class="cls-1" d="M68.68,98.76l13.92,24.1c.71,1.22.15,2.88-1.25,3.71l-7.29,4.32.48-.71c2.68-1.72,4.92-3.96,5.37-5.04.93-2.23-11.83-26.41-11.83-26.41l.61.02Z"/><path class="cls-1" d="M68.52,98.46s-.71.06-.83-.09c-1.34-1.68-3.8-.03-4.74,1.85l-24.6,44.95,24.24-51.79c.54-1.15,2.21-1.37,2.79-.37l3.14,5.44"/><path class="cls-1" d="M70.58,110.65s-.71.06-.83-.09c-1.34-1.68-3.8-.03-4.74,1.85l-18.98,30.04-.17-.13,18.72-36.82c.59-1.15,2.26-1.35,2.85-.33l3.16,5.47"/><polygon class="cls-1" points="45.16 162 45.98 162.07 45.19 162.06 45.16 162"/><path class="cls-1" d="M62.17,143.15l-15.09,3.36c-.65.17-2.32-.23-2.69-1.1l-2.05-3.73s2.35,2.33,3.52,2.7c4.45,1.39,17.21-1.76,17.21-1.76l-.91.52Z"/><path class="cls-1" d="M36.72,145.14l-6.82-11.76c-.32-.5-.29-2.16.51-2.87l3.33-3.52s-1.84,3.15-1.95,4.35c-.41,4.56,5.66,14.36,5.66,14.36l-.74-.56Z"/><path class="cls-1" d="M46.33,151.96c.61,1.05.91,2.66-1.88,3.62-3.3,1.13-5.71.77-5.71.77,0,0,.98-2.28,3.52-4.57,2.02-1.82,3.47-.87,4.08.18Z"/><path class="cls-1" d="M103.67,159.36l-13.92-24.1c-.71-1.22-2.42-1.57-3.84-.77l-7.39,4.15.86-.06c2.83-1.46,5.89-2.28,7.05-2.13,2.39.31,16.96,23.45,16.96,23.45l.28-.54Z"/><path class="cls-1" d="M103.84,159.65s-.41.59-.34.76c.78,2-1.87,3.3-3.97,3.18l-51.23-1.17,56.97,4.9c1.27.11,2.29-1.23,1.71-2.23l-3.14-5.44"/><path class="cls-1" d="M94.32,151.77s-.41.59-.34.76c.78,2-1.87,3.3-3.97,3.18l-35.5,1.42.02.21,41.25,2.2c1.29.07,2.3-1.28,1.71-2.3l-3.16-5.47"/><polygon class="cls-1" points="37.14 148.11 37.49 147.37 37.11 148.05 37.14 148.11"/><path class="cls-1" d="M61.97,142.81l-10.46,11.39c-.47.48-.96,2.13-.39,2.88l2.21,3.64s-.85-3.2-.58-4.4c1.02-4.54,10.13-14.02,10.13-14.02l-.91.52Z"/><path class="cls-1" d="M47.52,163.85l6.77,11.78c.27.53,1.72,1.33,2.74.99l4.71-1.12s-3.65.02-4.74-.48c-4.15-1.92-9.61-12.08-9.61-12.08l.12.92Z"/><circle class="cls-1" cx="81.33" cy="132.08" r="2.97"/></g><g id="_Radial_Repeat_-6"><path class="cls-1" d="M102.86,66.87l-13.92,24.1c-.71,1.22-2.42,1.57-3.84.77l-7.39-4.15.86.06c2.83,1.46,5.89,2.28,7.05,2.13,2.39-.31,16.96-23.45,16.96-23.45l.28.54Z"/><path class="cls-1" d="M103.03,66.58s-.41-.59-.34-.76c.78-2-1.87-3.3-3.97-3.18l-51.23,1.17,56.97-4.9c1.27-.11,2.29,1.23,1.71,2.23l-3.14,5.44"/><path class="cls-1" d="M93.51,74.46s-.41-.59-.34-.76c.78-2-1.87-3.3-3.97-3.18l-35.5-1.42.02-.21,41.25-2.2c1.29-.07,2.3,1.28,1.71,2.3l-3.16,5.47"/><polygon class="cls-1" points="36.33 78.11 36.68 78.86 36.29 78.18 36.33 78.11"/><path class="cls-1" d="M61.16,83.42l-10.46-11.39c-.47-.48-.96-2.13-.39-2.88l2.21-3.64s-.85,3.2-.58,4.4c1.02,4.54,10.13,14.02,10.13,14.02l-.91-.52Z"/><path class="cls-1" d="M46.71,62.38l6.77-11.78c.27-.53,1.72-1.33,2.74-.99l4.71,1.12s-3.65-.02-4.74.48c-4.15,1.92-9.61,12.08-9.61,12.08l.12-.92Z"/><path class="cls-1" d="M45.61,74.11c-.61,1.05-1.85,2.12-4.08.18-2.63-2.29-3.52-4.57-3.52-4.57,0,0,2.47-.29,5.71.77,2.59.84,2.49,2.57,1.88,3.62Z"/><path class="cls-1" d="M67.87,127.47l13.92-24.1c.71-1.22.15-2.88-1.25-3.71l-7.29-4.32.48.71c2.68,1.72,4.92,3.96,5.37,5.04.93,2.23-11.83,26.41-11.83,26.41l.61-.02Z"/><path class="cls-1" d="M67.7,127.77s-.71-.06-.83.09c-1.34,1.68-3.8.03-4.74-1.85l-24.6-44.95,24.24,51.79c.54,1.15,2.21,1.37,2.79.37l3.14-5.44"/><path class="cls-1" d="M69.76,115.58s-.71-.06-.83.09c-1.34,1.68-3.8.03-4.74-1.85l-18.98-30.04-.17.13,18.72,36.82c.59,1.15,2.26,1.35,2.85.33l3.16-5.47"/><polygon class="cls-1" points="44.34 64.23 45.16 64.16 44.38 64.17 44.34 64.23"/><path class="cls-1" d="M61.35,83.08l-15.09-3.36c-.65-.17-2.32.23-2.69,1.1l-2.05,3.73s2.35-2.33,3.52-2.7c4.45-1.39,17.21,1.76,17.21,1.76l-.91-.52Z"/><path class="cls-1" d="M35.91,81.09l-6.82,11.76c-.32.5-.29,2.16.51,2.87l3.33,3.52s-1.84-3.15-1.95-4.35c-.41-4.56,5.66-14.36,5.66-14.36l-.74.56Z"/><circle class="cls-1" cx="80.32" cy="94.49" r="2.97"/></g></svg>