<?xml version="1.0" encoding="UTF-8"?><svg id="Layer_1" xmlns="http://www.w3.org/2000/svg" viewBox="0 0 226.77 226.77"><defs><style>.cls-1{fill:#6b5851;}</style></defs><g id="_Radial_Repeat_"><path class="cls-1" d="M158.51,82.18h-34.39c-1.75,0-3.17-1.62-3.2-3.63l-.13-10.47.47.95c.18,3.93,1.2,7.72,2.08,8.86,1.81,2.37,35.57,3.66,35.57,3.66l-.4.64Z"/><path class="cls-1" d="M158.92,82.18s.37-.8.61-.84c2.62-.39,2.38-4.04.94-6.21l-32.9-54.08,40.44,57.92c.9,1.29.11,3.21-1.33,3.21h-7.76"/><path class="cls-1" d="M144.61,76.86s.37-.8.61-.84c2.62-.39,2.38-4.04.94-6.21l-20.41-38.86.24-.11,27.83,42.77c.87,1.34.04,3.25-1.41,3.25h-7.81"/><polygon class="cls-1" points="105.38 17.95 104.8 18.78 105.29 17.95 105.38 17.95"/><path class="cls-1" d="M115.04,47.79l5.72-18.22c.22-.8,1.69-2.34,2.84-2.2l5.25.11s-3.95,1.07-5.06,2.1c-4.23,3.9-8.75,19.5-8.75,19.5v-1.29Z"/><path class="cls-1" d="M128.63,19.33l16.79-.03c.73-.03,2.48,1.03,2.76,2.32l1.71,5.74s-2.23-3.92-3.44-4.77c-4.62-3.25-18.86-2.81-18.86-2.81l1.05-.44Z"/><path class="cls-1" d="M115.4,25.4c-1.5,0-3.41-.67-2.71-4.25.83-4.23,2.71-6.59,2.71-6.59,0,0,1.83,2.46,2.71,6.59.7,3.29-1.21,4.25-2.71,4.25Z"/><path class="cls-1" d="M72.06,82.18h34.39c1.75,0,3.17-1.62,3.2-3.63l.13-10.47-.47.95c-.18,3.93-1.2,7.72-2.08,8.86-1.81,2.37-35.57,3.66-35.57,3.66l.4.64Z"/><path class="cls-1" d="M71.64,82.18s-.37-.8-.61-.84c-2.62-.39-2.38-4.04-.94-6.21l32.9-54.08-40.44,57.92c-.9,1.29-.11,3.21,1.33,3.21h7.76"/><path class="cls-1" d="M85.95,76.86s-.37-.8-.61-.84c-2.62-.39-2.38-4.04-.94-6.21l20.41-38.86-.24-.11-27.83,42.77c-.87,1.34-.04,3.25,1.41,3.25h7.81"/><polygon class="cls-1" points="125.18 17.95 125.77 18.78 125.27 17.95 125.18 17.95"/><path class="cls-1" d="M115.53,47.79l-5.72-18.22c-.22-.8-1.69-2.34-2.84-2.2l-5.25.11s3.95,1.07,5.06,2.1c4.23,3.9,8.75,19.5,8.75,19.5v-1.29Z"/><path class="cls-1" d="M101.94,19.33l-16.79-.03c-.73-.03-2.48,1.03-2.76,2.32l-1.71,5.74s2.23-3.92,3.44-4.77c4.62-3.25,18.86-2.81,18.86-2.81l-1.05-.44Z"/><circle class="cls-1" cx="115.04" cy="75.13" r="3.67"/></g><g id="_Radial_Repeat_-2"><path class="cls-1" d="M159.11,143.77l-10.63-32.7c-.54-1.66.56-3.51,2.47-4.16l9.92-3.35-.76.74c-3.68,1.39-6.97,3.53-7.78,4.71-1.69,2.46,7.51,34.96,7.51,34.96l-.73-.19Z"/><path class="cls-1" d="M159.23,144.16s.88.11.98.32c1.18,2.37,4.58,1.01,6.2-1.02l41.27-48-42.59,56.36c-.95,1.26-3.02,1.09-3.47-.27l-2.4-7.38"/><path class="cls-1" d="M159.87,128.91s.88.11.98.32c1.18,2.37,4.58,1.01,6.2-1.02l30.65-31.42.18.2-32.07,39.69c-1,1.24-3.08,1.05-3.53-.33l-2.41-7.43"/><polygon class="cls-1" points="203.78 73.39 202.8 73.1 203.75 73.31 203.78 73.39"/><path class="cls-1" d="M178.38,91.8l19.1-.19c.83-.04,2.75.88,2.96,2.02l1.52,5.03s-2.24-3.43-3.56-4.17c-5.02-2.82-21.25-2.3-21.25-2.3l1.23-.4Z"/><path class="cls-1" d="M209.64,95.93l5.22,15.96c.26.68-.21,2.68-1.36,3.34l-4.93,3.4s3.04-3.33,3.47-4.75c1.66-5.4-3.15-18.81-3.15-18.81l.75.86Z"/><path class="cls-1" d="M199.78,85.22c-.46-1.42-.41-3.45,3.21-3.89,4.28-.52,7.1.54,7.1.54,0,0-1.77,2.5-5.43,4.61-2.91,1.68-4.42.16-4.88-1.26Z"/><path class="cls-1" d="M132.39,61.55l10.63,32.7c.54,1.66,2.52,2.51,4.44,1.92l9.99-3.12-1.05-.15c-3.79,1.04-7.71,1.24-9.07.76-2.81-.99-14.47-32.7-14.47-32.7l-.48.58Z"/><path class="cls-1" d="M132.26,61.15s.65-.6.61-.84c-.44-2.61,3.11-3.51,5.62-2.82l61.6,14.57-67.58-20.56c-1.51-.46-3.09.89-2.64,2.26l2.4,7.38"/><path class="cls-1" d="M141.75,73.12s.65-.6.61-.84c-.44-2.61,3.11-3.51,5.62-2.82l43.26,7.4.03-.27-49.28-13.25c-1.54-.41-3.1.96-2.66,2.34l2.41,7.43"/><polygon class="cls-1" points="209.9 92.23 209.28 93.04 209.93 92.31 209.9 92.23"/><path class="cls-1" d="M178.53,92.26l15.56-11.07c.7-.46,1.71-2.33,1.21-3.37l-1.73-4.96s.2,4.09-.43,5.46c-2.4,5.23-15.84,14.35-15.84,14.35l1.23-.4Z"/><path class="cls-1" d="M201.39,70.55l-5.16-15.98c-.19-.71-1.74-2.05-3.06-1.9l-5.99.15s4.41.91,5.6,1.8c4.52,3.39,8.51,17.07,8.51,17.07l.1-1.14Z"/><circle class="cls-1" cx="152.38" cy="100.25" r="3.67"/></g><g id="_Radial_Repeat_-3"><path class="cls-1" d="M100.72,163.37l27.82-20.21c1.41-1.03,3.52-.55,4.72,1.06l6.25,8.4-.94-.5c-2.46-3.07-5.51-5.54-6.89-5.95-2.86-.85-30.92,17.95-30.92,17.95l-.05-.75Z"/><path class="cls-1" d="M100.38,163.61s.17.87,0,1.03c-1.89,1.86.45,4.67,2.89,5.58l58.4,24.42-66.76-23.09c-1.49-.51-1.97-2.54-.81-3.38l6.28-4.56"/><path class="cls-1" d="M115.08,159.51s.17.87,0,1.03c-1.89,1.86.45,4.67,2.89,5.58l39.35,19.44-.13.23-47.66-18.24c-1.49-.57-1.95-2.6-.77-3.46l6.32-4.59"/><polygon class="cls-1" points="181.45 184.11 181.43 183.09 181.52 184.06 181.45 184.11"/><path class="cls-1" d="M156.1,165.64l6.08,18.1c.29.78.01,2.89-1,3.44l-4.32,3s2.56-3.19,2.86-4.68c1.13-5.64-4.38-20.92-4.38-20.92l.76,1.05Z"/><path class="cls-1" d="M161.83,196.65l-13.56,9.89c-.57.46-2.61.63-3.6-.26l-4.75-3.64s4.1,1.86,5.59,1.84c5.65-.09,16.92-8.81,16.92-8.81l-.59.98Z"/><path class="cls-1" d="M168.97,183.96c1.21-.88,3.15-1.46,4.69,1.85,1.82,3.91,1.68,6.92,1.68,6.92,0,0-2.93-.91-6.06-3.73-2.5-2.25-1.52-4.15-.31-5.03Z"/><path class="cls-1" d="M170.66,112.56l-27.82,20.21c-1.41,1.03-1.61,3.17-.45,4.82l6.05,8.54-.18-1.04c-2.16-3.29-3.56-6.95-3.53-8.39.08-2.98,26.63-23.86,26.63-23.86l-.7-.28Z"/><path class="cls-1" d="M170.99,112.31s.77.43.98.32c2.35-1.22,4.3,1.87,4.41,4.47l5.18,63.09-1.33-70.63c-.03-1.57-1.8-2.66-2.96-1.82l-6.28,4.56"/><path class="cls-1" d="M162.54,125.03s.77.43.98.32c2.35-1.22,4.3,1.87,4.41,4.47l6.33,43.43.26-.06-2.62-50.96c-.08-1.59-1.87-2.65-3.05-1.8l-6.32,4.59"/><polygon class="cls-1" points="165.43 195.75 164.47 195.42 165.36 195.8 165.43 195.75"/><path class="cls-1" d="M155.7,165.93l15.34,11.38c.65.52,2.74.9,3.58.11l4.19-3.18s-3.83,1.45-5.33,1.28c-5.71-.67-18.54-10.63-18.54-10.63l.76,1.05Z"/><path class="cls-1" d="M183.42,180.96l13.6-9.84c.61-.4,1.41-2.29.87-3.5l-1.99-5.65s.5,4.48.02,5.89c-1.83,5.35-13.61,13.37-13.61,13.37l1.11-.26Z"/><circle class="cls-1" cx="140.03" cy="143.53" r="3.67"/></g><g id="_Radial_Repeat_-4"><path class="cls-1" d="M64.03,113.89l27.82,20.21c1.41,1.03,1.61,3.17.45,4.82l-6.05,8.54.18-1.04c2.16-3.29,3.56-6.95,3.53-8.39-.08-2.98-26.63-23.86-26.63-23.86l.7-.28Z"/><path class="cls-1" d="M63.69,113.65s-.77.43-.98.32c-2.35-1.22-4.3,1.87-4.41,4.47l-5.18,63.09,1.33-70.63c.03-1.57,1.8-2.66,2.96-1.82l6.28,4.56"/><path class="cls-1" d="M72.14,126.37s-.77.43-.98.32c-2.35-1.22-4.3,1.87-4.41,4.47l-6.33,43.43-.26-.06,2.62-50.96c.08-1.59,1.87-2.65,3.05-1.8l6.32,4.59"/><polygon class="cls-1" points="69.25 197.09 70.22 196.75 69.33 197.14 69.25 197.09"/><path class="cls-1" d="M78.98,167.27l-15.34,11.38c-.65.52-2.74.9-3.58.11l-4.19-3.18s3.83,1.45,5.33,1.28c5.71-.67,18.54-10.63,18.54-10.63l-.76,1.05Z"/><path class="cls-1" d="M51.26,182.3l-13.6-9.84c-.61-.4-1.41-2.29-.87-3.5l1.99-5.65s-.5,4.48-.02,5.89c1.83,5.35,13.61,13.37,13.61,13.37l-1.11-.26Z"/><path class="cls-1" d="M65.53,185.17c1.21.88,2.36,2.55-.31,5.03-3.16,2.94-6.06,3.73-6.06,3.73,0,0-.04-3.07,1.68-6.92,1.37-3.07,3.48-2.73,4.69-1.85Z"/><path class="cls-1" d="M133.97,164.71l-27.82-20.21c-1.41-1.03-3.52-.55-4.72,1.06l-6.25,8.4.94-.5c2.46-3.07,5.51-5.54,6.89-5.95,2.86-.85,30.92,17.95,30.92,17.95l.05-.75Z"/><path class="cls-1" d="M134.31,164.95s-.17.87,0,1.03c1.89,1.86-.45,4.67-2.89,5.58l-58.4,24.42,66.76-23.09c1.49-.51,1.97-2.54.81-3.38l-6.28-4.56"/><path class="cls-1" d="M119.6,160.85s-.17.87,0,1.03c1.89,1.86-.45,4.67-2.89,5.58l-39.35,19.44.13.23,47.66-18.24c1.49-.57,1.95-2.6.77-3.46l-6.32-4.59"/><polygon class="cls-1" points="53.23 185.45 53.25 184.43 53.16 185.4 53.23 185.45"/><path class="cls-1" d="M78.59,166.98l-6.08,18.1c-.29.78-.01,2.89,1,3.44l4.32,3s-2.56-3.19-2.86-4.68c-1.13-5.64,4.38-20.92,4.38-20.92l-.76,1.05Z"/><path class="cls-1" d="M72.86,197.99l13.56,9.89c.57.46,2.61.63,3.6-.26l4.75-3.64s-4.1,1.86-5.59,1.84c-5.65-.09-16.92-8.81-16.92-8.81l.59.98Z"/><circle class="cls-1" cx="95.05" cy="145.15" r="3.67"/></g><g id="_Radial_Repeat_-5"><path class="cls-1" d="M99.75,63.72l-10.63,32.7c-.54,1.66-2.52,2.51-4.44,1.92l-9.99-3.12,1.05-.15c3.79,1.04,7.71,1.24,9.07.76,2.81-.99,14.47-32.7,14.47-32.7l.48.58Z"/><path class="cls-1" d="M99.88,63.32s-.65-.6-.61-.84c.44-2.61-3.11-3.51-5.62-2.82l-61.6,14.57,67.58-20.56c1.51-.46,3.09.89,2.64,2.26l-2.4,7.38"/><path class="cls-1" d="M90.39,75.28s-.65-.6-.61-.84c.44-2.61-3.11-3.51-5.62-2.82l-43.26,7.4-.03-.27,49.28-13.25c1.54-.41,3.1.96,2.66,2.34l-2.41,7.43"/><polygon class="cls-1" points="22.24 94.39 22.86 95.21 22.21 94.48 22.24 94.39"/><path class="cls-1" d="M53.61,94.43l-15.56-11.07c-.7-.46-1.71-2.33-1.21-3.37l1.73-4.96s-.2,4.09.43,5.46c2.4,5.23,15.84,14.35,15.84,14.35l-1.23-.4Z"/><path class="cls-1" d="M30.74,72.71l5.16-15.98c.19-.71,1.74-2.05,3.06-1.9l5.99.15s-4.41.91-5.6,1.8c-4.52,3.39-8.51,17.07-8.51,17.07l-.1-1.14Z"/><path class="cls-1" d="M32.43,87.17c-.46,1.42-1.69,3.03-4.88,1.26-3.77-2.09-5.43-4.61-5.43-4.61,0,0,2.91-.98,7.1-.54,3.34.35,3.67,2.47,3.21,3.89Z"/><path class="cls-1" d="M73.03,145.94l10.63-32.7c.54-1.66-.56-3.51-2.47-4.16l-9.92-3.35.76.74c3.68,1.39,6.97,3.53,7.78,4.71,1.69,2.46-7.51,34.96-7.51,34.96l.73-.19Z"/><path class="cls-1" d="M72.9,146.33s-.88.11-.98.32c-1.18,2.37-4.58,1.01-6.2-1.02l-41.27-48,42.59,56.36c.95,1.26,3.02,1.09,3.47-.27l2.4-7.38"/><path class="cls-1" d="M72.26,131.08s-.88.11-.98.32c-1.18,2.37-4.58,1.01-6.2-1.02l-30.65-31.42-.18.2,32.07,39.69c1,1.24,3.08,1.05,3.53-.33l2.41-7.43"/><polygon class="cls-1" points="28.36 75.56 29.34 75.26 28.39 75.48 28.36 75.56"/><path class="cls-1" d="M53.76,93.97l-19.1-.19c-.83-.04-2.75.88-2.96,2.02l-1.52,5.03s2.24-3.43,3.56-4.17c5.02-2.82,21.25-2.3,21.25-2.3l-1.23-.4Z"/><path class="cls-1" d="M22.5,98.1l-5.22,15.96c-.26.68.21,2.68,1.36,3.34l4.93,3.4s-3.04-3.33-3.47-4.75c-1.66-5.4,3.15-18.81,3.15-18.81l-.75.86Z"/><circle class="cls-1" cx="79.61" cy="102.88" r="3.67"/></g></svg>