<?xml version="1.0" encoding="UTF-8"?><svg id="Layer_1" xmlns="http://www.w3.org/2000/svg" viewBox="0 0 226.77 226.77"><defs><style>.cls-1{fill:#6b5851;}</style></defs><g id="_Radial_Repeat_"><path class="cls-1" d="M162.17,204.4h-42.09c-2.14,0-3.88-1.98-3.91-4.45l-.15-12.81.57,1.16c.22,4.81,1.47,9.45,2.54,10.85,2.22,2.9,43.54,4.47,43.54,4.47l-.49.78Z"/><path class="cls-1" d="M162.68,204.4s.46-.98.74-1.03c3.21-.48,2.91-4.95,1.15-7.61l-40.27-66.21,49.5,70.91c1.1,1.58.13,3.93-1.63,3.93h-9.5"/><path class="cls-1" d="M145.16,197.89s.46-.98.74-1.03c3.21-.48,2.91-4.95,1.15-7.61l-24.99-47.57.3-.13,34.07,52.36c1.07,1.64.05,3.98-1.72,3.98h-9.56"/><polygon class="cls-1" points="97.14 125.77 96.42 126.79 97.03 125.77 97.14 125.77"/><path class="cls-1" d="M108.96,162.3l7.01-22.3c.27-.98,2.06-2.87,3.47-2.69l6.43.14s-4.84,1.32-6.2,2.57c-5.18,4.77-10.71,23.87-10.71,23.87v-1.58Z"/><path class="cls-1" d="M125.59,127.47l20.55-.04c.89-.04,3.04,1.26,3.38,2.84l2.09,7.02s-2.73-4.8-4.22-5.84c-5.66-3.98-23.09-3.45-23.09-3.45l1.29-.54Z"/><path class="cls-1" d="M109.4,134.9c-1.83,0-4.17-.82-3.32-5.21,1.01-5.18,3.32-8.06,3.32-8.06,0,0,2.24,3.01,3.32,8.06.86,4.03-1.49,5.21-3.32,5.21Z"/><path class="cls-1" d="M56.34,204.4h42.09c2.14,0,3.88-1.98,3.91-4.45l.15-12.81-.57,1.16c-.22,4.81-1.47,9.45-2.54,10.85-2.22,2.9-43.54,4.47-43.54,4.47l.49.78Z"/><path class="cls-1" d="M55.83,204.4s-.46-.98-.74-1.03c-3.21-.48-2.91-4.95-1.15-7.61l40.27-66.21-49.5,70.91c-1.1,1.58-.13,3.93,1.63,3.93h9.5"/><path class="cls-1" d="M73.35,197.89s-.46-.98-.74-1.03c-3.21-.48-2.91-4.95-1.15-7.61l24.99-47.57-.3-.13-34.07,52.36c-1.07,1.64-.05,3.98,1.72,3.98h9.56"/><polygon class="cls-1" points="121.38 125.77 122.09 126.79 121.48 125.77 121.38 125.77"/><path class="cls-1" d="M109.55,162.3l-7.01-22.3c-.27-.98-2.06-2.87-3.47-2.69l-6.43.14s4.84,1.32,6.2,2.57c5.18,4.77,10.71,23.87,10.71,23.87v-1.58Z"/><path class="cls-1" d="M92.92,127.47l-20.55-.04c-.89-.04-3.04,1.26-3.38,2.84l-2.09,7.02s2.73-4.8,4.22-5.84c5.66-3.98,23.09-3.45,23.09-3.45l-1.29-.54Z"/><circle class="cls-1" cx="108.96" cy="195.77" r="4.49"/></g><g id="_Radial_Repeat_-2"><path class="cls-1" d="M48.68,198.93l-13.01-40.03c-.66-2.03.68-4.3,3.02-5.1l12.14-4.11-.93.9c-4.5,1.7-8.53,4.32-9.53,5.77-2.07,3.01,9.2,42.79,9.2,42.79l-.89-.23Z"/><path class="cls-1" d="M48.83,199.42s1.07.13,1.2.39c1.45,2.9,5.61,1.24,7.59-1.25l50.52-58.76-52.14,68.99c-1.16,1.54-3.7,1.34-4.24-.33l-2.93-9.03"/><path class="cls-1" d="M49.62,180.74s1.07.13,1.2.39c1.45,2.9,5.61,1.24,7.59-1.25l37.52-38.46.22.24-39.26,48.58c-1.23,1.52-3.77,1.28-4.32-.41l-2.95-9.09"/><polygon class="cls-1" points="103.36 112.78 102.17 112.42 103.33 112.68 103.36 112.78"/><path class="cls-1" d="M72.27,135.31l23.38-.23c1.02-.05,3.37,1.08,3.63,2.47l1.86,6.16s-2.75-4.19-4.36-5.1c-6.14-3.45-26.01-2.81-26.01-2.81l1.51-.49Z"/><path class="cls-1" d="M110.54,140.37l6.39,19.53c.32.84-.25,3.28-1.66,4.09l-6.03,4.16s3.72-4.08,4.25-5.81c2.04-6.61-3.86-23.03-3.86-23.03l.91,1.06Z"/><path class="cls-1" d="M98.47,127.26c-.57-1.74-.51-4.22,3.93-4.76,5.24-.64,8.69.66,8.69.66,0,0-2.17,3.06-6.64,5.65-3.56,2.06-5.41.2-5.98-1.55Z"/><path class="cls-1" d="M15.97,98.28l13.01,40.03c.66,2.03,3.08,3.08,5.44,2.35l12.24-3.81-1.28-.18c-4.64,1.27-9.44,1.52-11.1.93-3.44-1.22-17.71-40.03-17.71-40.03l-.59.71Z"/><path class="cls-1" d="M15.82,97.8s.79-.74.75-1.02c-.53-3.2,3.81-4.3,6.88-3.45l75.41,17.84-82.73-25.17c-1.84-.56-3.78,1.09-3.24,2.76l2.93,9.03"/><path class="cls-1" d="M27.42,112.44s.79-.74.75-1.02c-.53-3.2,3.81-4.3,6.88-3.45l52.96,9.06.03-.32-60.32-16.23c-1.89-.51-3.8,1.18-3.25,2.87l2.95,9.09"/><polygon class="cls-1" points="110.85 135.83 110.1 136.83 110.89 135.94 110.85 135.83"/><path class="cls-1" d="M72.45,135.88l19.05-13.56c.85-.56,2.09-2.85,1.48-4.13l-2.12-6.08s.24,5.01-.53,6.69c-2.94,6.4-19.39,17.56-19.39,17.56l1.51-.49Z"/><path class="cls-1" d="M100.44,109.29l-6.31-19.56c-.24-.86-2.13-2.5-3.75-2.33l-7.33.18s5.4,1.11,6.86,2.2c5.53,4.15,10.41,20.9,10.41,20.9l.12-1.39Z"/><circle class="cls-1" cx="40.44" cy="145.66" r="4.49"/></g><g id="_Radial_Repeat_-3"><path class="cls-1" d="M18.81,89.3l34.05-24.74c1.73-1.26,4.3-.68,5.78,1.3l7.66,10.28-1.15-.61c-3.01-3.76-6.74-6.78-8.43-7.28-3.5-1.04-37.86,21.97-37.86,21.97l-.06-.92Z"/><path class="cls-1" d="M18.4,89.6s.21,1.06,0,1.27c-2.31,2.27.55,5.72,3.54,6.83l71.49,29.89L11.71,99.32c-1.82-.63-2.41-3.1-.99-4.14l7.68-5.58"/><path class="cls-1" d="M36.4,84.57s.21,1.06,0,1.27c-2.31,2.27.55,5.72,3.54,6.83l48.17,23.8-.16.28-58.34-22.33c-1.83-.7-2.38-3.19-.95-4.23l7.73-5.62"/><polygon class="cls-1" points="117.64 114.69 117.62 113.44 117.73 114.63 117.64 114.69"/><path class="cls-1" d="M86.6,92.08l7.44,22.16c.36.96.02,3.53-1.23,4.21l-5.28,3.67s3.14-3.91,3.5-5.72c1.38-6.9-5.36-25.6-5.36-25.6l.93,1.28Z"/><path class="cls-1" d="M93.62,130.04l-16.6,12.11c-.7.56-3.2.77-4.4-.32l-5.82-4.45s5.03,2.28,6.84,2.25c6.92-.11,20.71-10.79,20.71-10.79l-.72,1.2Z"/><path class="cls-1" d="M102.36,114.51c1.48-1.08,3.86-1.79,5.74,2.26,2.23,4.79,2.05,8.47,2.05,8.47,0,0-3.58-1.12-7.42-4.57-3.06-2.75-1.86-5.09-.38-6.16Z"/><path class="cls-1" d="M104.43,27.09l-34.05,24.74c-1.73,1.26-1.98,3.88-.55,5.9l7.41,10.46-.22-1.28c-2.65-4.02-4.36-8.5-4.32-10.27.09-3.65,32.6-29.21,32.6-29.21l-.86-.34Z"/><path class="cls-1" d="M104.84,26.8s.95.53,1.2.39c2.88-1.49,5.27,2.29,5.4,5.48l6.34,77.23-1.63-86.46c-.04-1.93-2.21-3.26-3.63-2.22l-7.68,5.58"/><path class="cls-1" d="M94.5,42.36s.95.53,1.2.39c2.88-1.49,5.27,2.29,5.4,5.48l7.75,53.17.32-.07-3.21-62.38c-.1-1.95-2.3-3.25-3.73-2.21l-7.73,5.62"/><polygon class="cls-1" points="98.03 128.94 96.85 128.53 97.94 129 98.03 128.94"/><path class="cls-1" d="M86.12,92.43l18.78,13.93c.8.64,3.36,1.11,4.39.13l5.12-3.89s-4.69,1.78-6.53,1.56c-6.99-.82-22.69-13.01-22.69-13.01l.93,1.28Z"/><path class="cls-1" d="M120.06,110.84l16.65-12.05c.75-.49,1.72-2.8,1.06-4.29l-2.44-6.91s.61,5.48.02,7.2c-2.24,6.54-16.66,16.36-16.66,16.36l1.36-.32Z"/><circle class="cls-1" cx="66.93" cy="65.01" r="4.49"/></g><g id="_Radial_Repeat_-4"><path class="cls-1" d="M113.84,27.02l34.05,24.74c1.73,1.26,1.98,3.88.55,5.9l-7.41,10.46.22-1.28c2.65-4.02,4.36-8.5,4.32-10.27-.09-3.65-32.6-29.21-32.6-29.21l.86-.34Z"/><path class="cls-1" d="M113.43,26.72s-.95.53-1.2.39c-2.88-1.49-5.27,2.29-5.4,5.48l-6.34,77.23,1.63-86.46c.04-1.93,2.21-3.26,3.63-2.22l7.68,5.58"/><path class="cls-1" d="M123.77,42.28s-.95.53-1.2.39c-2.88-1.49-5.27,2.29-5.4,5.48l-7.75,53.17-.32-.07,3.21-62.38c.1-1.95,2.3-3.25,3.73-2.21l7.73,5.62"/><polygon class="cls-1" points="120.24 128.86 121.42 128.45 120.32 128.92 120.24 128.86"/><path class="cls-1" d="M132.15,92.35l-18.78,13.93c-.8.64-3.36,1.11-4.39.13l-5.12-3.89s4.69,1.78,6.53,1.56c6.99-.82,22.69-13.01,22.69-13.01l-.93,1.28Z"/><path class="cls-1" d="M98.21,110.76l-16.65-12.05c-.75-.49-1.72-2.8-1.06-4.29l2.44-6.91s-.61,5.48-.02,7.2c2.24,6.54,16.66,16.36,16.66,16.36l-1.36-.32Z"/><path class="cls-1" d="M115.68,114.27c1.48,1.08,2.89,3.12-.38,6.16-3.86,3.6-7.42,4.57-7.42,4.57,0,0-.04-3.75,2.05-8.47,1.67-3.76,4.26-3.34,5.74-2.26Z"/><path class="cls-1" d="M199.46,89.22l-34.05-24.74c-1.73-1.26-4.3-.68-5.78,1.3l-7.66,10.28,1.15-.61c3.01-3.76,6.74-6.78,8.43-7.28,3.5-1.04,37.86,21.97,37.86,21.97l.06-.92Z"/><path class="cls-1" d="M199.87,89.52s-.21,1.06,0,1.27c2.31,2.27-.55,5.72-3.54,6.83l-71.49,29.89,81.72-28.27c1.82-.63,2.41-3.1.99-4.14l-7.68-5.58"/><path class="cls-1" d="M181.87,84.49s-.21,1.06,0,1.27c2.31,2.27-.55,5.72-3.54,6.83l-48.17,23.8.16.28,58.34-22.33c1.83-.7,2.38-3.19.95-4.23l-7.73-5.62"/><polygon class="cls-1" points="100.63 114.61 100.65 113.36 100.54 114.55 100.63 114.61"/><path class="cls-1" d="M131.67,92l-7.44,22.16c-.36.96-.02,3.53,1.23,4.21l5.28,3.67s-3.14-3.91-3.5-5.72c-1.38-6.9,5.36-25.6,5.36-25.6l-.93,1.28Z"/><path class="cls-1" d="M124.65,129.96l16.6,12.11c.7.56,3.2.77,4.4-.32l5.82-4.45s-5.03,2.28-6.84,2.25c-6.92-.11-20.71-10.79-20.71-10.79l.72,1.2Z"/><circle class="cls-1" cx="151.82" cy="65.28" r="4.49"/></g><g id="_Radial_Repeat_-5"><path class="cls-1" d="M202.45,98.15l-13.01,40.03c-.66,2.03-3.08,3.08-5.44,2.35l-12.24-3.81,1.28-.18c4.64,1.27,9.44,1.52,11.1.93,3.44-1.22,17.71-40.03,17.71-40.03l.59.71Z"/><path class="cls-1" d="M202.6,97.67s-.79-.74-.75-1.02c.53-3.2-3.81-4.3-6.88-3.45l-75.41,17.84,82.73-25.17c1.84-.56,3.78,1.09,3.24,2.76l-2.93,9.03"/><path class="cls-1" d="M190.99,112.31s-.79-.74-.75-1.02c.53-3.2-3.81-4.3-6.88-3.45l-52.96,9.06-.03-.32,60.32-16.23c1.89-.51,3.8,1.18,3.25,2.87l-2.95,9.09"/><polygon class="cls-1" points="107.56 135.71 108.32 136.7 107.53 135.81 107.56 135.71"/><path class="cls-1" d="M145.96,135.75l-19.05-13.56c-.85-.56-2.09-2.85-1.48-4.13l2.12-6.08s-.24,5.01.53,6.69c2.94,6.4,19.39,17.56,19.39,17.56l-1.51-.49Z"/><path class="cls-1" d="M117.97,109.16l6.31-19.56c.24-.86,2.13-2.5,3.75-2.33l7.33.18s-5.4,1.11-6.86,2.2c-5.53,4.15-10.41,20.9-10.41,20.9l-.12-1.39Z"/><path class="cls-1" d="M120.03,126.87c-.57,1.74-2.07,3.72-5.98,1.55-4.61-2.56-6.64-5.65-6.64-5.65,0,0,3.56-1.2,8.69-.66,4.09.43,4.49,3.02,3.93,4.76Z"/><path class="cls-1" d="M169.74,198.8l13.01-40.03c.66-2.03-.68-4.3-3.02-5.1l-12.14-4.11.93.9c4.5,1.7,8.53,4.32,9.53,5.77,2.07,3.01-9.2,42.79-9.2,42.79l.89-.23Z"/><path class="cls-1" d="M169.59,199.29s-1.07.13-1.2.39c-1.45,2.9-5.61,1.24-7.59-1.25l-50.52-58.76,52.14,68.99c1.16,1.54,3.7,1.34,4.24-.33l2.93-9.03"/><path class="cls-1" d="M168.8,180.61s-1.07.13-1.2.39c-1.45,2.9-5.61,1.24-7.59-1.25l-37.52-38.46-.22.24,39.26,48.58c1.23,1.52,3.77,1.28,4.32-.41l2.95-9.09"/><polygon class="cls-1" points="115.05 112.65 116.25 112.29 115.09 112.55 115.05 112.65"/><path class="cls-1" d="M146.15,135.19l-23.38-.23c-1.02-.05-3.37,1.08-3.63,2.47l-1.86,6.16s2.75-4.19,4.36-5.1c6.14-3.45,26.01-2.81,26.01-2.81l-1.51-.49Z"/><path class="cls-1" d="M107.88,140.24l-6.39,19.53c-.32.84.25,3.28,1.66,4.09l6.03,4.16s-3.72-4.08-4.25-5.81c-2.04-6.61,3.86-23.03,3.86-23.03l-.91,1.06Z"/><circle class="cls-1" cx="177.79" cy="146.09" r="4.49"/></g></svg>